<?xml version="1.0" encoding="UTF-8" standalone="no"?>
<svg
   xmlns:dc="http://purl.org/dc/elements/1.1/"
   xmlns:cc="http://creativecommons.org/ns#"
   xmlns:rdf="http://www.w3.org/1999/02/22-rdf-syntax-ns#"
   xmlns:svg="http://www.w3.org/2000/svg"
   xmlns="http://www.w3.org/2000/svg"
   xmlns:xlink="http://www.w3.org/1999/xlink"
   version="1.1"
   viewBox="-10 -10 2900 1000"
   id="svg8">
  <defs id="shapedefs">
  
    <!-- empty (for showing lines) -->
    <g id="letter-empty" data-nstrokes="0" data-width="500">
    </g>



  
    <!-- a -->
    <g id="letter-a" data-nstrokes="3" data-width="930" data-width1="740" data-width2="740">
      <g class="strokes" id="strokes-a">
        <path data-entry="1"
           d="M35.387 35C35.387 35 371.387 512 371.427 512.429C433.157 592.29 527.789 648 652 648L705 648" 
           id="stroke-a1" />
        <path 
           d="M705 648h-53c-242.074 0 -368 -204 -368 -408c0 -132 58 -206 134 -206c142 0 287 200 287 307v305"
           id="stroke-a2" />
        <path 
           d="M705 648C704 652 705 138.414 705 137C705 83 722 34 780.004 34C822.004 34 843.004 73 858.004 103L891.381 171"
           id="stroke-a3" />
        <path 
           d="M705 648 h1"
           id="overlap-a2" /><!-- 1. use overlap only if as troke overlaps ITSELF, not if two strokes overlap each other. 2. must be a path, not a dot-->
      </g>
      <g class="outline" id="outlines-a">
        <path id="outline-a1"
      d="M35.387 1.007c-18.786 0 -33.993 15.208 -33.993 33.993c0 6.852 2.056 13.705 6.169 19.547c336.476 478.049 336.476 478.049 336.94 478.649c44.861 58.037 141.552 148.797 307.498 148.797h53c18.786 0 33.993 -15.208 33.993 -33.993c0 -18.786 -15.208 -33.993 -33.993 -33.993h-53c-69.873 0 -179.055 -16.426 -253.195 -121.76l-335.593 -476.794c-2.623 -3.727 -11.579 -14.446 -27.825 -14.446z" />
        <path id="outline-a2"
    d="M705 681.993l-53 0c-256.745 0 -401.993 -213.571 -401.993 -441.993c0 -85.755 22.397 -154.006 65.131 -196.741c27.807 -27.807 63.917 -43.253 102.862 -43.253c126.866 0 242.535 127.193 292.017 231.54c17.727 37.383 28.977 74.589 28.977 109.453c0 303 0 307 0 307c0 18.785 -15.208 33.987 -33.993 33.993c-22 0.007 -33.993 -15.208 -33.993 -33.993l0 -307c0 -47.539 -40.177 -131.522 -104.767 -196.112c-46.876 -46.876 -101.29 -76.895 -148.24 -76.895c-64.073 0 -100.007 74.496 -100.007 172.007c0 178.683 106.26 374.007 334.007 374.007l19 0l0.007 33.993c0.007 35 33.993 33.993 33.993 33.993z" />
        <path id="outline-a3"
    d="M738.549 517.872c0 -153.906 0.444 -377.063 0.444 -380.872c0 -17.687 2.392 -54.382 21.536 -64.884c4.128 -2.265 9.907 -4.122 19.471 -4.122c14.928 0 27.015 9.07 47.591 50.222l33.267 67.778c5.541 11.288 17.166 19 30.523 19c18.786 0 33.993 -15.208 33.993 -33.993c0 -5.14 -1.157 -10.28 -3.47 -14.993l-33.487 -68.222c-14.354 -28.708 -43.889 -87.778 -108.417 -87.778c-30.236 0 -108.993 11.999 -108.993 137.008c-0.371 239.259 -0.444 286.65 -0.444 380.611c0 134.809 0.375 129.252 0.375 130.557c0 0.268 -0.01 0.465 -0.01 0.708c0 0.077 0.084 3.537 1.129 7.608c0.377 1.469 -0.977 5.699 8.888 15.564c3.788 3.788 12.39 9.952 24.09 9.952c18.422 0 33.96 -14.758 33.96 -34.015c0 -1.301 -0.444 15.595 -0.444 -130.128z" />
       
      </g>
    </g>

    <!-- min a (no entry stroke) -->
    <g id="letter-a-noentry" data-nstrokes="2" data-width="720" data-width1="530">
      <g class="strokes" id="strokes-a-noentry">
        <path 
           d="M495 648h-53c-242.074 0 -368 -204 -368 -408c0 -132 58 -206 134 -206c142 0 287 200 287 307v305"
           id="stroke-a-noentry1" />
        <path 
           d="M495 648C494 652 495 138.414 495 137C495 83 512 34 570.004 34C612.004 34 633.004 73 648.004 103L681.381 171"
           id="stroke-a-noentry2" />
        <path 
           d="M495 648 h1"
           id="overlap-a-noentry1" /><!-- 1. use overlap only if as troke overlaps ITSELF, not if two strokes overlap each other. 2. must be a path, not a dot-->
      </g>
      <g class="outline" id="outlines-a-noentry">
        <path id="outline-a-noentry1"
    d="M495 681.993l-53 0c-256.745 0 -401.993 -213.571 -401.993 -441.993c0 -85.755 22.397 -154.006 65.131 -196.741c27.807 -27.807 63.917 -43.253 102.862 -43.253c126.866 0 242.535 127.193 292.017 231.54c17.727 37.383 28.977 74.589 28.977 109.453c0 303 0 307 0 307c0 18.785 -15.208 33.987 -33.993 33.993c-22 0.007 -33.993 -15.208 -33.993 -33.993l0 -307c0 -47.539 -40.177 -131.522 -104.767 -196.112c-46.876 -46.876 -101.29 -76.895 -148.24 -76.895c-64.073 0 -100.007 74.496 -100.007 172.007c0 178.683 106.26 374.007 334.007 374.007l19 0l0.007 33.993c0.007 35 33.993 33.993 33.993 33.993z" />
        <path id="outline-a-noentry2"
    d="M528.549 517.872c0 -153.906 0.444 -377.063 0.444 -380.872c0 -17.687 2.392 -54.382 21.536 -64.884c4.128 -2.265 9.907 -4.122 19.471 -4.122c14.928 0 27.015 9.07 47.591 50.222l33.267 67.778c5.541 11.288 17.166 19 30.523 19c18.786 0 33.993 -15.208 33.993 -33.993c0 -5.14 -1.157 -10.28 -3.47 -14.993l-33.487 -68.222c-14.354 -28.708 -43.889 -87.778 -108.417 -87.778c-30.236 0 -108.993 11.999 -108.993 137.008c-0.371 239.259 -0.444 286.65 -0.444 380.611c0 134.809 0.375 129.252 0.375 130.557c0 0.268 -0.01 0.465 -0.01 0.708c0 0.077 0.084 3.537 1.129 7.608c0.377 1.469 -0.977 5.699 8.888 15.564c3.788 3.788 12.39 9.952 24.09 9.952c18.422 0 33.96 -14.758 33.96 -34.015c0 -1.301 -0.444 15.595 -0.444 -130.128z" />
      </g>
    </g>
    
    <!-- b -->
    <g id="letter-b" data-nstrokes="2" data-width="1077" data-width1="788">
      <g class="strokes" id="strokes-b">
        <path 
           d="  M35.3867 35l526 1070c15.9902 32.4951 24 72.8164 24 109c0 57.0312 -33 116 -110 116c-111.047 0 -142.387 -102 -142.387 -225v-934c0 -76 52 -137 134 -137c142 0 287 183.005 287 405c0 101.045 -27 178 -50 209"
           id="stroke-b1" />
        <path 
           d="M703 648c20 -35 43 -53 79 -71.8232c31.5527 -16.498 62.8965 -19.1768 91 -19.1768s58.4473 2.67871 90 19.1768c36 18.8232 61 36.8232 81 71.8232"
           id="stroke-b2" />
        <path 
           d="M495 648 h1"
           id="overlap-b1" /><!-- 1. use overlap only if as troke overlaps ITSELF, not if two strokes overlap each other. 2. must be a path, not a dot-->
      </g>
      <g class="outline" id="outlines-b">
        <path id="outline-b1"
    d="M367 633c0 0 225 457 224.895 456.977c19.1053 38.0235 27.4854 82.941 27.4854 124.023c0 82.5983 -53.8145 149.993 -143.993 149.993h-0.386719c-48.212 0 -114.93 -17.0608 -150.529 -101.287c-19.416 -45.9374 -25.4644 -100.581 -25.4644 -157.706v-934
c0 -96.2214 68.6357 -170.993 167.993 -170.993c162.771 0 320.993 198.791 320.993 438.993c0 59.5359 -8.78194 111.379 -21.1449 152.24c-9.90576 32.7394 -21.753 58.4388 -35.5199 76.9942c-2.7982 3.77149 -11.6852 13.7593 -27.3285 13.7593
c-18.7856 0 -33.9933 -15.2079 -33.9933 -33.9933c0 -7.12267 2.2216 -14.2453 6.66479 -20.234c16.1643 -21.7866 43.3352 -90.0916 43.3352 -188.766c0 -204.273 -132.325 -371.007 -253.007 -371.007c-65.2153 0 -100.007 47.9903 -100.007 103.007v934
c0 64.1387 9.32148 139.391 48.5483 172.094c13.9422 11.6236 31.9234 18.9125 59.4584 18.9125h0.386719c26.0514 0 42.0321 -8.16006 53.2421 -19.37c14.4037 -14.4037 22.7645 -37.8172 22.7645 -62.6366c0 -31.2847 -7.37456 -67.2467 -20.5146 -93.9765
l-163.879 -334.023v-153zM299 494c-89.0811 -181.403 -233 -474 -233.099 -474.011c-5.9006 -10.9885 -17.1699 -18.9819 -30.5139 -18.9819c-18.7855 0 -33.9933 15.2077 -33.9933 33.9933c0 5.14642 1.60661 10 3.47945 15.0115
c0.127161 -0.0114812 188.191 382.622 294.127 597.989z" />
        <path id="outline-b2"
    d="M1044 681.993c18.7856 0 33.9933 -15.2079 33.9933 -33.9933c0 -5.82888 -1.48782 -11.6578 -4.46347 -16.8651c-25.0677 -43.8686 -57.4139 -65.5601 -94.7702 -85.0925c-38.3228 -20.0379 -75.5687 -23.0356 -105.76 -23.0356
c-30.1692 0 -68.2142 2.88131 -106.76 23.0357c-38.8313 20.3037 -68.2271 42.1422 -92.7701 85.0925c-2.97564 5.20738 -4.46347 11.0363 -4.46347 16.8651c0 18.7856 15.2079 33.9933 33.9933 33.9933c3.88032 0 20.3064 -0.98717 29.5299 -17.1282
c15.5728 -27.2525 32.3839 -41.3799 65.2299 -58.554c24.5599 -12.8417 49.2024 -15.3178 75.2402 -15.3178c26.0161 0 49.4577 2.35971 74.2403 15.3179c34.2267 17.896 52.1706 32.2004 67.2298 58.5539c1.92363 3.36635 10.9253 17.1282 29.5299 17.1282z" />
      </g>
    </g>

    <!-- b-noentry (no entry strokes) -->
    <g id="letter-b-noentry" data-nstrokes="2" data-width="877" data-width1="588">
      <g class="strokes" id="strokes-b-noentry">
        <path 
           d=" M34.5137 436l328.873 669q23.6135 48.0351 24 109q-0.386719 48 -27.606 81.8799q-27.7808 34.1201 -82.394 34.1201q-142.387 0 -142.387 -225v-934q0 -58 37 -97.5t97 -39.5q109 0 198 121t89 284q0 70 -15 126t-35 83"
           id="stroke-b-noentry1" />
        <path 
           d="M505 648c20 -35 43 -53 79 -71.823c31.553 -16.498 62.897 -19.177 91 -19.177s58.447 2.679 90 19.177c36 18.823 61 36.823 81 71.823"
           id="stroke-b-noentry2" />
      </g>
      <g class="outline" id="outlines-b-noentry">
        <path id="outline-b-noentry1"
    d="M169 633c0 0 225 457 224.895 456.977c19.1055 38.0234 27.4854 82.9414 27.4854 124.023c0 82.5986 -53.8145 149.993 -143.993 149.993h-0.386719c-48.2119 0 -114.93 -17.0605 -150.529 -101.287c-19.416 -45.9375 -25.4639 -100.581 -25.4639 -157.706v-934
c0 -96.2217 68.6357 -170.993 167.993 -170.993c162.771 0 320.993 198.791 320.993 438.993c0 59.5361 -8.78223 111.379 -21.1445 152.239c-9.90625 32.7402 -21.7529 58.4395 -35.5205 76.9951c-2.79785 3.77148 -11.6846 13.7588 -27.3281 13.7588
c-18.7852 0 -33.9932 -15.208 -33.9932 -33.9932c0 -7.12305 2.22168 -14.2451 6.66504 -20.2344c16.1641 -21.7861 43.335 -90.0908 43.335 -188.766c0 -204.273 -132.325 -371.007 -253.007 -371.007c-65.2148 0 -100.007 47.9902 -100.007 103.007v934
c0 64.1387 9.32129 139.391 48.5488 172.094c13.9414 11.624 31.9229 18.9131 59.458 18.9131h0.386719c26.0518 0 42.0322 -8.16016 53.2422 -19.3701c14.4033 -14.4033 22.7646 -37.8174 22.7646 -62.6367c0 -31.2852 -7.375 -67.2471 -20.5146 -93.9766
l-163.879 -334.023v-153zM101 494c-17 -35 -23.2035 -47.8914 -36.4863 -73.0186c-7.91812 -14.9787 -17.1699 -18.9814 -30.5137 -18.9814c-18.7852 0 -33.9932 15.208 -33.9932 33.9932c0 5.14648 1.60645 10 3.47949 15.0117
c0.126953 -0.0117188 -8.42188 -18.3721 97.5137 196.995v-154z" />
        <path id="outline-b-noentry2"
    d="M846 681.993c18.786 0 33.993 -15.208 33.993 -33.993c0 -5.829 -1.488 -11.658 -4.463 -16.865c-25.068 -43.869 -57.414 -65.56 -94.77 -85.092c-38.323 -20.038 -75.569 -23.036 -105.76 -23.036c-30.169 0 -68.214 2.881 -106.76 23.036c-38.831 20.304 -68.227 42.142 -92.77 85.092c-2.976 5.207 -4.463 11.036 -4.463 16.865c0 18.786 15.208 33.993 33.993 33.993c3.88 0 20.306 -0.987 29.53 -17.128c15.573 -27.253 32.384 -41.38 65.23 -58.554c24.56 -12.842 49.202 -15.318 75.24 -15.318c26.016 0 49.458 2.36 74.24 15.318c34.227 17.896 52.171 32.2 67.23 58.554c1.924 3.366 10.925 17.128 29.53 17.128z" />
      </g>
    </g>  
    
    <!-- c -->
    <g id="letter-c" data-nstrokes="2" data-width="746" data-width1="663">
      <g class="strokes" id="strokes-c">
        <path 
           d="M35.3867 34l311.999 512c38.6719 62.333 94.6465 102 156.614 102c46.7266 0 90.0459 -23.3916 124.549 -59.9873"
           id="stroke-c1" />
        <path 
           d="M628.549 588.013c-34.9736 36.2705 -78.0762 59.9873 -124.549 59.9873c-116 0 -211 -139 -211 -308s95 -306 210.999 -306c57.001 0 99.127 15.2734 150 52.0596c23.8105 17.2178 42.4209 34.4971 57.3242 50.9404"
           id="stroke-c2"/>
      </g>
      <g class="outline" id="outlines-c">
        <path id="outline-c1"
    d="M35.3867 0q-14.0738 0 -24.0369 9.96308t-9.96308 24.0369q0 9.54226 4.94444 17.6562l312.141 512.233q33.5083 54.0101 81.5492 86.0606q48.0409 32.0505 103.979 32.0505q82.6559 0 149.288 -70.6735q9.26096 -9.82268 9.26096 -23.3138q0 -14.0738 -9.96308 -24.0369
t-24.0369 -9.96308q-14.664 0 -24.739 10.6862q-46.4818 49.3011 -99.8098 49.3011q-35.2167 0 -68.5505 -22.1599q-33.3337 -22.1599 -59.0812 -63.6161l-311.926 -511.88q-9.95945 -16.3438 -29.0556 -16.3438z" />
        <path id="outline-c2"
    d="M259.007 340c0 190.669 110.352 341.993 244.993 341.993c17.7692 0 82.5352 -1.42603 149.032 -70.3884c6.34029 -6.5754 9.51044 -15.0838 9.51044 -23.5923c0 -18.7856 -15.2079 -33.9933 -33.9933 -33.9933c-14.0291 0 -21.0259 6.99678 -27.3389 13.3097
c-30.0043 30.0043 -63.9042 46.6776 -97.21 46.6776c-96.166 0 -177.007 -125.785 -177.007 -274.007c0 -148.091 80.6361 -272.007 177.006 -272.007c48.3355 0 83.6197 12.0297 130.101 45.6401c21.1921 15.3244 38.115 30.8466 52.0141 46.182
c3.37852 3.72764 11.8075 11.178 25.2092 11.178c18.7856 0 33.9933 -15.2079 33.9933 -33.9933c0 -14.4427 -7.14489 -21.8146 -21.52 -36.1898c-16.0066 -16.0066 -72.6218 -68.9491 -140.558 -89.7163c-25.0918 -7.67016 -51.201 -11.0873 -79.2392 -11.0873
c-134.492 0 -244.992 149.273 -244.992 339.993z" />
      </g>
    </g>

    <!-- c-noentry -->
    <g id="letter-c-noentry" data-nstrokes="1" data-width="487">
      <g class="strokes" id="strokes-c-noentry">
        <path 
           d="M369.549 588.013c-34.974 36.27 -78.076 59.987 -124.549 59.987c-116 0 -211 -139 -211 -308s95 -306 210.999 -306c57.001 0 99.127 15.273 150 52.06c23.811 17.218 42.421 34.497 57.324 50.94"
           id="stroke-c-noentry1"/>
      </g>
      <g class="outline" id="outlines-c-noentry">
        <path id="outline-c-noentry1"
    d="M0.007 340c0 190.669 110.352 341.993 244.993 341.993c17.769 0 82.535 -1.426 149.032 -70.388c6.34 -6.575 9.51 -15.084 9.51 -23.592c0 -18.786 -15.208 -33.993 -33.993 -33.993c-14.029 0 -21.026 6.997 -27.339 13.31c-30.004 30.004 -63.904 46.678 -97.21 46.678c-96.166 0 -177.007 -125.785 -177.007 -274.007c0 -148.091 80.636 -272.007 177.006 -272.007c48.336 0 83.62 12.03 130.101 45.64c21.192 15.324 38.115 30.847 52.014 46.182c3.379 3.728 11.808 11.178 25.209 11.178c18.786 0 33.993 -15.208 33.993 -33.993c0 -14.443 -7.145 -21.815 -21.52 -36.19c-16.007 -16.007 -72.622 -68.949 -140.558 -89.716c-25.092 -7.67 -51.201 -11.087 -79.239 -11.087c-134.492 0 -244.992 149.273 -244.992 339.993z" />
      </g>
    </g>
    

    <!-- f -->
    <g id="letter-f" data-nstrokes="2" data-width="619">
      <g class="strokes" id="strokes-f">
        <path 
           d="M35.3867 35l526 1070c15.9902 32.4951 24 72.8164 24 109c0 57.0312 -31 116 -111 116c-111.047 0 -141.387 -102 -141.387 -225v-1527c0 -123 41 -225 119 -225s119 102 119 225c0 186.682 -106 455.944 -235.332 455.944" 
           id="stroke-f1" />
        <path 
           d="M337 34c45 0 96.7207 23.9043 158 137"
           id="stroke-f2" />
      </g>
      <g class="outline" id="outlines-f">
        <path id="outline-f1"
      d="M299.439 495l-233.539 -475.011c-5.54684 -11.2835 -17.1699 -18.9819 -30.5139 -18.9819c-18.7855 0 -33.9933 15.2077 -33.9933 33.9933c0 5.14642 1.15982 10.2928 3.47945 15.0115l294.358 597.989zM367.575 787l163.304 333.023
c13.1401 26.7298 20.5146 62.6918 20.5146 93.9765c0 25.3337 -8.02505 48.5491 -22.1564 62.6804c-10.9704 10.9704 -27.1529 19.3262 -54.8503 19.3262c-36.7778 0 -107.393 -7.88191 -107.393 -191.007c0 0 0.00666704 -1041 -0.000168896 -1041
c0.315717 0 -11.9932 4 -31.3252 3.9375c-11.668 0.0625 -34.668 -7.9375 -35.9932 -33.9932c0.325195 -20.9443 19.3252 -33.9443 35.9932 -33.9932c16.332 0.0488281 31.6484 -7.95117 31.3252 -7.95117c0.00683594 0 0 -414 0 -414
c0 -82.8613 19.8184 -146.492 47.8513 -174.525c11.5348 -11.5348 22.95 -16.4813 37.1556 -16.4813c14.2055 0 25.6207 4.94649 37.1556 16.4813c44.9355 44.9355 47.8511 148.426 47.8511 174.525c0 181.562 -103.897 421.951 -201.339 421.951
c-18.7852 0 -35.9932 15.208 -35.9932 33.9932s17.208 33.9932 35.9932 33.9932c159.605 0 269.325 -295.511 269.325 -489.938c0 -156.778 -60.2494 -258.993 -152.993 -258.993c-92.7521 0 -152.993 102.229 -152.993 258.993v1527
c0 46.6189 3.99944 91.4158 15.7632 131.322c31.484 106.802 106.101 127.672 159.617 127.672c91.6899 0 144.993 -65.6839 144.993 -149.993c0 -41.0825 -8.65557 -85.7579 -27.4854 -124.023l-224.203 -455.977z" />
        <path id="outline-f2"
    d="M495 204.993c18.7856 0 33.9933 -15.2079 33.9933 -33.9933c0 -5.58177 -1.36434 -11.1635 -4.09303 -16.1995c-55.3552 -102.162 -113.689 -154.794 -187.9 -154.794c-18.7856 0 -33.9933 15.2079 -33.9933 33.9933c0 18.7856 15.2079 33.9933 33.9933 33.9933
c22.059 0 66.3121 5.17238 128.1 119.206c5.76126 10.6329 17.0302 17.7938 29.9003 17.7938z" />
      </g>
    </g>
    
    <!-- f noentry -->
    <g id="letter-f-noentry" data-nstrokes="2" data-width="420">
      <g class="strokes" id="strokes-f-noentry">
        <path 
           d="M34.5137 436l328.873 669c15.6133 32 24 72.8164 24 109c0 57.0312 -31 116 -108 116  c-111.047 0 -141.387 -102 -141.387 -225v-1527c0 -123 41 -225 119 -225s119 102 119 225c0 186.682 -106 455.944 -235.332 455.944" 
           id="stroke-f-noentry1" />
        <path 
           d="M131 34c45 0 104.721 23.904 166 137"
           id="stroke-f-noentry2" />
      </g>
      <g class="outline" id="outlines-f-noentry">
        <path id="outline-f-noentry1"
      d="M101.439 495l-36.9258 -74.0186c-5.54688 -11.2832 -17.1699 -18.9814 -30.5137 -18.9814c-18.7852 0 -33.9932 15.208 -33.9932 33.9932c0 5.14648 1.15918 10.293 3.47949 15.0117l97.7441 196.995zM169.575 787l163.304 333.023
c13.1396 26.7295 20.5146 62.6914 20.5146 93.9766c0 25.334 -8.02539 48.5488 -22.1562 62.6807c-10.9707 10.9697 -27.1533 19.3262 -54.8506 19.3262c-36.7773 0 -107.394 -7.88184 -107.394 -191.007c0 0 0.00683594 -1041 0 -1041
c0.31543 0 -11.9932 4 -31.3252 3.9375c-11.668 0.0625 -34.668 -7.9375 -35.9932 -33.9932c0.325195 -20.9443 19.3252 -33.9443 35.9932 -33.9932c16.332 0.0488281 31.6484 -7.95117 31.3252 -7.95117c0.00683594 0 0 -414 0 -414
c0 -82.8613 19.8184 -146.492 47.8516 -174.525c11.5342 -11.5352 22.9502 -16.4814 37.1553 -16.4814s25.6211 4.94629 37.1553 16.4814c44.9355 44.9355 47.8516 148.427 47.8516 174.525c0 181.562 -103.897 421.951 -201.339 421.951
c-18.7852 0 -35.9932 15.208 -35.9932 33.9932s17.208 33.9932 35.9932 33.9932c159.605 0 269.325 -295.511 269.325 -489.938c0 -156.778 -60.249 -258.993 -152.993 -258.993c-92.752 0 -152.993 102.229 -152.993 258.993v1527
c0 46.6191 3.99902 91.416 15.7627 131.321c31.4844 106.802 106.101 127.672 159.617 127.672c91.6895 0 144.993 -65.6836 144.993 -149.993c0 -41.082 -8.65527 -85.7578 -27.4854 -124.023l-224.203 -455.977z" />
        <path id="outline-f-noentry2"
    d="M297 204.993c18.786 0 33.993 -15.208 33.993 -33.993c0 -5.582 -1.364 -11.163 -4.093 -16.199c-55.355 -102.162 -113.689 -154.794 -187.9 -154.794c-18.786 0 -33.993 15.208 -33.993 33.993c0 18.786 15.208 33.993 33.993 33.993c22.059 0 66.312 5.172 128.1 119.206c5.761 10.633 17.03 17.794 29.9 17.794z" />
      </g>
    </g>    
    
    <!-- f-alt1 -->
    <g id="letter-f-alt1" data-nstrokes="2" data-width="619">
      <g class="strokes" id="strokes-f-alt1">
        <path 
           d="M35.3867 35l526 1070c15.9902 32.4951 24 72.8164 24 109c0 57.0312 -33 116 -110 116c-111.047 0 -142.387 -102 -142.387 -225v-1527c0 -123 41 -225 119 -225s119 102 119 225c0 47.9844 -12.5625 98.1445 -28 144c-63.709 189.242 -163.735 485.962 -210 620" 
           id="stroke-f-alt11" />
        <path 
           d="M334 341c61 0 115 15 158 64"
           id="stroke-f-alt12" />
      </g>
      <g class="outline" id="outlines-f-alt1">
        <path id="outline-f-alt11"
      d="M299 494c-155.165 -315.981 -232.865 -473.984 -233.099 -474.011c-6.79523 -12.6546 -16.9665 -18.9819 -30.5139 -18.9819c-9.39275 0 -17.4065 3.31736 -24.0412 9.95207c-6.63474 6.63471 -9.9521 14.6485 -9.9521 24.0413c0 3.8006 1.15982 8.80443 3.47945 15.0115
c0.0375432 -0.00338973 15.9278 32.2639 47.6706 96.8018c31.7429 64.5379 74.4762 151.44 128.2 260.705c53.7238 109.265 93.1427 189.426 118.256 240.482v-154zM366.993 1105c0.00666704 35 2.83072 65.651 8.47881 90.953
c5.65254 25.4081 12.1648 44.3558 19.5367 56.8429s16.7429 22.2283 28.1129 29.2236s20.5766 11.0752 27.6199 12.24c7.04328 1.1648 15.2583 1.74719 24.6451 1.74719c22.5814 0 40.3288 -6.45668 53.2421 -19.37c15.1764 -15.1764 22.7645 -36.0552 22.7645 -62.6366
c0 -34.8301 -6.83822 -66.1556 -20.5146 -93.9765l-163.879 -334.023v-153c9.4866 19.2684 21.9952 44.676 37.5257 76.2228c15.5305 31.5469 39.7272 80.6993 72.59 147.457c32.8628 66.758 60.2144 122.332 82.0547 166.721s32.7484 66.5811 32.7243 66.5757
c18.3236 36.4677 27.4854 77.8088 27.4854 124.023c0 42.6747 -13.0395 78.3423 -39.1184 107.003c-26.0789 28.6604 -61.0372 42.9906 -104.875 42.9906c-15.0373 0 -29.5301 -1.7442 -43.4785 -5.2326c-13.9484 -3.4884 -28.6297 -9.52516 -44.0439 -18.1103
c-15.4142 -8.58513 -29.511 -21.7863 -42.2902 -39.6035s-22.9638 -39.4465 -30.554 -64.8878c-10.6801 -36.106 -16.0202 -80.1591 -16.0136 -131.159v-1527c-0.00666704 -157 60.2412 -258.993 152.993 -258.993c92.744 0 152.993 102.215 152.993 258.993
c0 53.9027 -13.7494 107.269 -29.7796 154.885c-63.7227 189.283 -163.729 485.946 -210.083 620.244c-4.62903 13.4113 -17.3485 22.8639 -32.1305 22.8639c-18.7856 0 -33.9933 -15.2079 -33.9933 -33.9933c0 -3.76566 0.620958 -7.53132 1.86287 -11.1294
c46.1748 -133.778 146.221 -430.554 209.917 -619.756c14.8449 -44.0951 26.2204 -91.0489 26.2204 -133.115c0 -26.0989 -2.91564 -129.59 -47.8511 -174.525c-11.5348 -11.5348 -22.95 -16.4813 -37.1556 -16.4813c-14.2055 0 -25.6207 4.94649 -37.1556 16.4813
c-28.0329 28.0329 -47.8444 91.5253 -47.8511 174.525l-0.000168896 559c-19.8472 59.5567 -49.9932 147 -66.1236 193.871c-1.05694 3.07118 -1.86464 1.86378 -1.86287 11.1294c0.00448337 23.5364 20.7598 33.9933 33.9933 33.9933
c12.6328 0 26 -5.99333 33.9932 -27.9933z" />
        <path id="outline-f-alt12"
    d="M492 438.993c18.7856 0 33.9933 -15.2079 33.9933 -33.9933c0 -14.0084 -7.12276 -21.8197 -18.8541 -33.551c-49.5047 -49.5047 -111.157 -64.4423 -173.139 -64.4423c-18.7856 0 -33.9933 15.2079 -33.9933 33.9933c0 18.7856 15.2079 33.9933 33.9933 33.9933
c52.5401 0 96.3598 11.3144 132.425 52.4117c3.30052 3.76106 11.8219 11.5883 25.5752 11.5883z" />
      </g>
    </g>    

    <!-- f-alt1-noentry -->
    <g id="letter-f-alt1-noentry" data-nstrokes="2" data-width="420">
      <g class="strokes" id="strokes-f-alt1-noentry">
        <path 
           d="M34.5137 436q328.394 666.826 328.873 669q23.6133 48 24 109q-0.386719 47 -28.0244 81.7109q-28.3623 34.2891 -81.9756 34.2891q-142.387 0 -142.387 -225v-1527q0 -97 31.5 -161t87.5 -64t87.5 64t31.5 161q0 61 -28 144q-158 470 -210 620" 
           id="stroke-f-alt1-noentry1" />
        <path 
           d="M136 341c61 0 115 15 158 64"
           id="stroke-f-alt1-noentry2" />
      </g>
      <g class="outline" id="outlines-f-alt1-noentry">
        <path id="outline-f-alt1-noentry1"
      d="M101 494q-6 -13 -35.4863 -73.0186q-10.5137 -18.9814 -30.5137 -18.9814q-14 0 -24.041 9.95215q-9.95898 10.0479 -9.95215 24.041q-0.00596596 6.98785 3.47949 15.0117q6.51367 14.9951 96.5137 196.995v-154zM168.993 1105q0.0107422 53.0156 8.47852 90.9531
q8.47949 38.1123 19.5371 56.8428t28.1133 29.2236q17.0547 10.4932 27.6191 12.2402q10.5654 1.74707 24.6455 1.74707q33.8721 0 53.2422 -19.3701q22.7646 -22.7646 22.7646 -62.6367q0 -52.2451 -20.5146 -93.9766l-163.879 -334.023v-153
q14.2295 28.9023 37.5254 76.2227t72.5908 147.457q49.2939 100.138 82.0547 166.721q32.7598 66.584 32.7236 66.5762q27.4854 54.7012 27.4854 124.023q0 64.0117 -39.1182 107.003q-39.1182 42.9902 -104.875 42.9902q-22.5557 0 -43.4785 -5.23242t-44.0439 -18.1104
t-42.29 -39.6035t-30.5537 -64.8877q-16.0234 -54.1709 -16.0137 -131.159v-1527q-0.00488281 -117.751 41.7119 -188.372q41.7178 -70.6211 111.281 -70.6211q69.5342 0 111.264 70.6846t41.7295 188.309q0 66.4277 -29.7793 154.885q-158.311 470.248 -210.083 620.245
q-7.89258 22.8633 -32.1309 22.8633q-14.0889 0 -24.041 -9.95215t-9.95215 -24.041q0 -5.73242 1.8623 -11.1299q51.6895 -149.752 209.917 -619.755q26.2207 -77.8857 26.2207 -133.115q0 -22.7744 -2.05859 -48.1201q-2.05762 -25.3457 -13.7773 -65.7275
q-11.7197 -40.3828 -32.0156 -60.6777q-16.4814 -16.4814 -37.1553 -16.4814t-37.1553 16.4814q-21.6406 21.6406 -34.7432 67.7324q-13.1035 46.0928 -13.1084 106.793v559q-18.2432 54.7441 -66.124 193.87q-1.86328 5.41699 -1.8623 11.1299
q0.00292969 16.0537 11.0508 25.0234t22.9424 8.96973q23.8223 0 33.9932 -27.9932v757z" />
        <path id="outline-f-alt1-noentry2"
    d="M294 438.993c18.786 0 33.993 -15.208 33.993 -33.993c0 -14.008 -7.123 -21.82 -18.854 -33.551c-49.505 -49.505 -111.157 -64.442 -173.139 -64.442c-18.786 0 -33.993 15.208 -33.993 33.993c0 18.786 15.208 33.993 33.993 33.993c52.54 0 96.36 11.314 132.425 52.412c3.301 3.761 11.822 11.588 25.575 11.588z" />
      </g>
    </g>    

    <!-- f-alt2 -->
    <g id="letter-f-alt2" data-nstrokes="2" data-width="619">
      <g class="strokes" id="strokes-f-alt2">
        <path 
           d="M35.3867 35l526 1070c15.9902 32.4951 24 72.8164 24 109c0 57.0312 -33.3867 116 -110.387 116c-110.66 0 -142 -102.005 -142 -225v-1752" 
           id="stroke-f-alt21" />
        <path 
           d="M173 112q41 -47 78.5 -62.5t79.5 -15.5t81 15.5t80 62.5"
           id="stroke-f-alt22"  data-lift="1"/>
      </g>
      <g class="outline" id="outlines-f-alt2">
        <path id="outline-f-alt21"
      d="M299 494c-155.165 -315.981 -232.865 -473.984 -233.099 -474.011c-6.79523 -12.6546 -16.9665 -18.9819 -30.5139 -18.9819c-9.39275 0 -17.4065 3.31736 -24.0412 9.95207c-6.63474 6.63471 -9.9521 14.6485 -9.9521 24.0413c0 3.8006 1.15982 8.80443 3.47945 15.0115
c0.0375432 -0.00338973 15.9278 32.2639 47.6706 96.8018c31.7429 64.5379 74.4762 151.44 128.2 260.705c53.7238 109.265 93.1427 189.426 118.256 240.482v-154zM299.007 1105c-0.00666704 51 5.33341 95.053 16.0136 131.159
c7.31985 25.2273 17.5045 46.8566 30.554 64.8878c12.9506 17.9687 27.0473 31.1699 42.2902 39.6035c15.4238 8.89971 30.1051 14.9365 44.0439 18.1103c14.0612 3.49285 28.554 5.23705 43.4785 5.2326c43.7422 0.00444469 78.7005 -14.3258 104.875 -42.9906
c25.8256 -28.6685 38.865 -64.336 39.1184 -107.003c-0.253368 -46 -9.41515 -87.3412 -27.4854 -124.023c0.0702022 0.0156531 -10.8379 -22.1763 -32.7243 -66.5757c-22.1136 -44.2672 -49.4652 -99.8408 -82.0547 -166.721
c-32.7438 -66.4534 -56.9405 -115.606 -72.59 -147.457c-15.6838 -31.4819 -28.1924 -56.8895 -37.5257 -76.2228v153l163.879 334.023c13.4142 27.3177 20.2524 58.6432 20.5146 93.9765c-0.262257 26.6667 -7.85044 47.5455 -22.7645 62.6366
c-13.0859 12.9089 -30.8333 19.3656 -53.2421 19.37c-9.59115 -0.00444469 -17.8062 -0.586843 -24.6451 -1.74719c-7.16108 -0.839648 -16.3677 -4.91966 -27.6199 -12.24c-11.4145 -6.67963 -20.7855 -16.4208 -28.1129 -29.2236
c-7.33925 -12.5306 -13.8515 -31.4782 -19.5367 -56.8429c-5.65253 -25.3219 -8.47214 -55.953 -8.47881 -90.953v-1752c0.00666704 -19 -15.2077 -33.9933 -33.9933 -33.9933c-18.7855 0 -34 14.9933 -33.9933 33.9933v1752zM366.993 137z" />
        <path id="outline-f-alt22"
    d="M148.958 136.042q9.9517 9.9517 24.0416 9.9517q15.4664 0 24.5624 -10.427q36.8024 -42.1881 67.5099 -54.8806q30.7075 -12.6924 66.0482 -12.6924q35.3407 0 68.2931 13.0964q31.3823 12.4725 66.9447 53.2392q10.1753 11.6644 24.9535 11.6644
q14.7782 0 24.5061 -9.72789q10.1781 -10.1781 10.1781 -23.6286t-8.73118 -23.4287q-46.237 -52.8405 -91.9814 -71.021q-45.7445 -18.1805 -94.4037 -18.1805t-92.3937 18.0769q-44.8506 18.5383 -91.1276 71.5875q-8.35418 9.51522 -8.35418 22.9657
q0 13.4505 9.9543 23.4048z" />
      </g>
    </g>   
    
    <!-- f-alt2-noentry -->
    <g id="letter-f-alt2-noentry" data-nstrokes="2" data-width="420">
      <g class="strokes" id="strokes-f-alt2-noentry">
        <path 
           d="M34.5137 436l328.873 669q23.6133 49 24 109q0 47.3584 -28.2021 81.6787q-28.2021 34.3213 -82.1846 34.3213q-142 0 -142 -225v-1752" 
           id="stroke-f-alt2-noentry1" />
        <path 
           d="M-25 112q41 -47 78.5 -62.5t79.5 -15.5t81 15.5t80 62.5"
           id="stroke-f-alt2-noentry2" data-lift="1" />
      </g>
      <g class="outline" id="outlines-f-alt2-noentry">
        <path id="outline-f-alt2-noentry1"
      d="M101 494q-20 -42 -35.4863 -73.0186q-10.5137 -18.9814 -30.5137 -18.9814q-14 0 -24.041 9.95215q-9.95898 10.0479 -9.95215 24.041q-0.00545994 6.39515 3.47949 15.0117q12.5137 25.9951 96.5137 196.995v-154zM101.007 1105q-0.00976562 76.9883 16.0137 131.159
q10.9795 37.8408 30.5537 64.8877q19.4258 26.9531 42.29 39.6035q23.1357 13.3496 44.0439 18.1104q21.0918 5.23926 43.4785 5.23242q65.6133 0.00683594 104.875 -42.9902q38.7383 -43.0029 39.1182 -107.003q-0.379883 -69 -27.4854 -124.023
q0.105469 0.0234375 -32.7236 -66.5762q-33.1709 -66.4004 -82.0547 -166.721q-49.1162 -99.6797 -72.5908 -147.457q-23.5254 -47.2227 -37.5254 -76.2227v153l163.879 334.023q20.1211 40.9766 20.5146 93.9766q-0.393555 40 -22.7646 62.6367
q-19.6289 19.3633 -53.2422 19.3701q-14.3867 -0.00683594 -24.6455 -1.74707q-10.7412 -1.25977 -27.6191 -12.2402q-17.1221 -10.0195 -28.1133 -29.2236q-11.0088 -18.7959 -19.5371 -56.8428q-8.46777 -37.9375 -8.47852 -90.9531v-1752
q0.00488281 -14.2119 -9.93066 -24.1025q-9.93457 -9.89062 -24.0625 -9.89062t-24.0625 9.89062q-9.93555 9.89062 -9.93066 24.1025v1752zM168.993 137z" />
        <path id="outline-f-alt2-noentry2"
    d="M-49.042 136.042q9.952 9.952 24.042 9.952q15.466 0 24.562 -10.427q36.802 -42.188 67.51 -54.881q30.707 -12.692 66.048 -12.692q35.341 0 68.293 13.096q31.382 12.472 66.945 53.239q10.175 11.664 24.954 11.664q14.778 0 24.506 -9.728q10.178 -10.178 10.178 -23.629t-8.731 -23.429q-46.237 -52.84 -91.981 -71.021q-45.745 -18.18 -94.404 -18.18t-92.394 18.077q-44.851 18.538 -91.128 71.588q-8.354 9.515 -8.354 22.966q0 13.451 9.954 23.405z" />
      </g>
    </g>   

    

    <!-- f-alt3 -->
    <g id="letter-f-alt3" data-nstrokes="2" data-width="619">
      <g class="strokes" id="strokes-f-alt3">
        <path 
           d="M35.3867 35l526 1070c15.9902 32.4951 24 72.8164 24 109c0 57.0312 -33.3867 116 -110.387 116c-110.66 0 -142 -102.005 -142 -225v-1752" 
           id="stroke-f-alt31" />
        <path 
           d="M207.651 385.262c46.3291 -39.0293 89.9551 -44.2617 126.349 -44.2617c61 0 115 15 158 64"
           id="stroke-f-alt32"  data-lift="1"/>
      </g>
      <g class="outline" id="outlines-f-alt3">
        <path id="outline-f-alt31"
      d="M299 494c-155.165 -315.981 -232.865 -473.984 -233.099 -474.011c-6.79523 -12.6546 -16.9665 -18.9819 -30.5139 -18.9819c-9.39275 0 -17.4065 3.31736 -24.0412 9.95207c-6.63474 6.63471 -9.9521 14.6485 -9.9521 24.0413c0 3.8006 1.15982 8.80443 3.47945 15.0115
c0.0375432 -0.00338973 15.9278 32.2639 47.6706 96.8018c31.7429 64.5379 74.4762 151.44 128.2 260.705c53.7238 109.265 93.1427 189.426 118.256 240.482v-154zM299.007 1105c-0.00666704 51 5.33341 95.053 16.0136 131.159
c7.31985 25.2273 17.5045 46.8566 30.554 64.8878c12.9506 17.9687 27.0473 31.1699 42.2902 39.6035c15.4238 8.89971 30.1051 14.9365 44.0439 18.1103c14.0612 3.49285 28.554 5.23705 43.4785 5.2326c43.7422 0.00444469 78.7005 -14.3258 104.875 -42.9906
c25.8256 -28.6685 38.865 -64.336 39.1184 -107.003c-0.253368 -46 -9.41515 -87.3412 -27.4854 -124.023c0.0702022 0.0156531 -10.8379 -22.1763 -32.7243 -66.5757c-22.1136 -44.2672 -49.4652 -99.8408 -82.0547 -166.721
c-32.7438 -66.4534 -56.9405 -115.606 -72.59 -147.457c-15.6838 -31.4819 -28.1924 -56.8895 -37.5257 -76.2228v153l163.879 334.023c13.4142 27.3177 20.2524 58.6432 20.5146 93.9765c-0.262257 26.6667 -7.85044 47.5455 -22.7645 62.6366
c-13.0859 12.9089 -30.8333 19.3656 -53.2421 19.37c-9.59115 -0.00444469 -17.8062 -0.586843 -24.6451 -1.74719c-7.16108 -0.839648 -16.3677 -4.91966 -27.6199 -12.24c-11.4145 -6.67963 -20.7855 -16.4208 -28.1129 -29.2236
c-7.33925 -12.5306 -13.8515 -31.4782 -19.5367 -56.8429c-5.65253 -25.3219 -8.47214 -55.953 -8.47881 -90.953v-1752c0.00666704 -19 -15.2077 -33.9933 -33.9933 -33.9933c-18.7855 0 -34 14.9933 -33.9933 33.9933v1752zM366.993 137z" />
        <path id="outline-f-alt32"
    d="M492 438.993c18.7856 0 33.9933 -15.2079 33.9933 -33.9933c0 -14.0084 -7.12276 -21.8197 -18.8541 -33.551c-49.5047 -49.5047 -111.157 -64.4423 -173.139 -64.4423c-39.0593 0 -92.6594 5.41492 -148.23 52.2298c-3.78493 3.18856 -12.1117 11.8176 -12.1117 26.0252
c0 18.7856 15.2079 33.9933 33.9933 33.9933c7.78801 0 15.576 -2.65603 21.8816 -7.96809c37.365 -31.4776 71.3266 -36.2936 104.467 -36.2936c52.5401 0 96.3598 11.3144 132.425 52.4117c3.30052 3.76106 11.8219 11.5883 25.5752 11.5883z" />
      </g>
    </g>   
    
    <!-- f-alt3-noentry -->
    <g id="letter-f-alt3-noentry" data-nstrokes="2" data-width="420">
      <g class="strokes" id="strokes-f-alt3-noentry">
        <path 
           d="M34.5137 436l328.873 669q23.6133 49 24 109q0 47.3584 -28.2021 81.6787q-28.2021 34.3213 -82.1846 34.3213q-142 0 -142 -225v-1752" 
           id="stroke-f-alt3-noentry1" />
        <path 
           d="M9.651 385.262c46.329 -39.029 89.955 -44.262 126.349 -44.262c61 0 115 15 158 64"
           id="stroke-f-alt3-noentry2" data-lift="1" />
      </g>
      <g class="outline" id="outlines-f-alt3-noentry">
        <path id="outline-f-alt3-noentry1"
      d="M101 494q-20 -42 -35.4863 -73.0186q-10.5137 -18.9814 -30.5137 -18.9814q-14 0 -24.041 9.95215q-9.95898 10.0479 -9.95215 24.041q-0.00545994 6.39515 3.47949 15.0117q12.5137 25.9951 96.5137 196.995v-154zM101.007 1105q-0.00976562 76.9883 16.0137 131.159
q10.9795 37.8408 30.5537 64.8877q19.4258 26.9531 42.29 39.6035q23.1357 13.3496 44.0439 18.1104q21.0918 5.23926 43.4785 5.23242q65.6133 0.00683594 104.875 -42.9902q38.7383 -43.0029 39.1182 -107.003q-0.379883 -69 -27.4854 -124.023
q0.105469 0.0234375 -32.7236 -66.5762q-33.1709 -66.4004 -82.0547 -166.721q-49.1162 -99.6797 -72.5908 -147.457q-23.5254 -47.2227 -37.5254 -76.2227v153l163.879 334.023q20.1211 40.9766 20.5146 93.9766q-0.393555 40 -22.7646 62.6367
q-19.6289 19.3633 -53.2422 19.3701q-14.3867 -0.00683594 -24.6455 -1.74707q-10.7412 -1.25977 -27.6191 -12.2402q-17.1221 -10.0195 -28.1133 -29.2236q-11.0088 -18.7959 -19.5371 -56.8428q-8.46777 -37.9375 -8.47852 -90.9531v-1752
q0.00488281 -14.2119 -9.93066 -24.1025q-9.93457 -9.89062 -24.0625 -9.89062t-24.0625 9.89062q-9.93555 9.89062 -9.93066 24.1025v1752zM168.993 137z" />
        <path id="outline-f-alt3-noentry2"
    d="M294 438.993c18.786 0 33.993 -15.208 33.993 -33.993c0 -14.008 -7.123 -21.82 -18.854 -33.551c-49.505 -49.505 -111.157 -64.442 -173.139 -64.442c-39.059 0 -92.659 5.415 -148.23 52.23c-3.785 3.189 -12.112 11.818 -12.112 26.025c0 18.786 15.208 33.993 33.993 33.993c7.788 0 15.576 -2.656 21.882 -7.968c37.365 -31.478 71.327 -36.294 104.467 -36.294c52.54 0 96.36 11.314 132.425 52.412c3.301 3.761 11.822 11.588 25.575 11.588z" />
      </g>
    </g>   
    

    <!-- f-alt4 -->
    <g id="letter-f-alt4" data-nstrokes="2" data-width="619">
      <g class="strokes" id="strokes-f-alt4">
        <path 
           d="M35.3867 35l526 1070c15.9902 32.4951 24 72.8164 24 109c0 57.0312 -33.3867 116 -110.387 116c-110.66 0 -142 -102 -142 -225v-1559" 
           id="stroke-f-alt41" />
        <path 
           d="M173 112q41 -47 78.5 -62.5t79.5 -15.5t81 15.5t80 62.5"
           id="stroke-f-alt42"  data-lift="1"/>
      </g>
      <g class="outline" id="outlines-f-alt4">
        <path id="outline-f-alt41"
      d="M299 494c-155.165 -315.981 -232.865 -473.984 -233.099 -474.011c-6.79523 -12.6546 -16.9665 -18.9819 -30.5139 -18.9819c-9.39275 0 -17.4065 3.31736 -24.0412 9.95207c-6.63474 6.63471 -9.9521 14.6485 -9.9521 24.0413c0 3.8006 1.15982 8.80443 3.47945 15.0115
c0.0375432 -0.00338973 15.9278 32.2639 47.6706 96.8018c31.7429 64.5379 74.4762 151.44 128.2 260.705c53.7238 109.265 93.1427 189.426 118.256 240.482v-154zM299.007 1105c-0.00666704 51 5.33341 95.053 16.0136 131.159
c7.31985 25.2273 17.5045 46.8566 30.554 64.8878c12.9506 17.9687 27.0473 31.1699 42.2902 39.6035c15.4238 8.89971 30.1051 14.9365 44.0439 18.1103c14.0612 3.49285 28.554 5.23705 43.4785 5.2326c43.7422 0.00444469 78.7005 -14.3258 104.875 -42.9906
c25.8256 -28.6685 38.865 -64.336 39.1184 -107.003c-0.253368 -46 -9.41515 -87.3412 -27.4854 -124.023c0.0702022 0.0156531 -10.8379 -22.1763 -32.7243 -66.5757c-22.1136 -44.2672 -49.4652 -99.8408 -82.0547 -166.721
c-32.7438 -66.4534 -56.9405 -115.606 -72.59 -147.457c-15.6838 -31.4819 -28.1924 -56.8895 -37.5257 -76.2228v153l163.879 334.023c13.4142 27.3177 20.2524 58.6432 20.5146 93.9765c-0.262257 26.6667 -7.85044 47.5455 -22.7645 62.6366
c-13.0859 12.9089 -30.8333 19.3656 -53.2421 19.37c-9.59115 -0.00444469 -17.8062 -0.586843 -24.6451 -1.74719c-7.16108 -0.839648 -16.3677 -4.91966 -27.6199 -12.24c-11.4145 -6.67963 -20.7855 -16.4208 -28.1129 -29.2236
c-7.33925 -12.5306 -13.8515 -31.4782 -19.5367 -56.8429c-5.65253 -25.3219 -8.47214 -55.953 -8.47881 -90.953l-0.000168896 -1559c0.00683594 -19 -15.208 -33.9932 -33.9932 -33.9932s-34 14.9932 -33.9932 33.9932z" />
        <path id="outline-f-alt42"
    d="M148.958 136.042q9.9517 9.9517 24.0416 9.9517q15.4664 0 24.5624 -10.427q36.8024 -42.1881 67.5099 -54.8806q30.7075 -12.6924 66.0482 -12.6924q35.3407 0 68.2931 13.0964q31.3823 12.4725 66.9447 53.2392q10.1753 11.6644 24.9535 11.6644
q14.7782 0 24.5061 -9.72789q10.1781 -10.1781 10.1781 -23.6286t-8.73118 -23.4287q-46.237 -52.8405 -91.9814 -71.021q-45.7445 -18.1805 -94.4037 -18.1805t-92.3937 18.0769q-44.8506 18.5383 -91.1276 71.5875q-8.35418 9.51522 -8.35418 22.9657
q0 13.4505 9.9543 23.4048z" />
      </g>
    </g>   



    <!-- f-alt4-noentry -->
    <g id="letter-f-alt4-noentry" data-nstrokes="2" data-width="420">
      <g class="strokes" id="strokes-f-alt4-noentry">
        <path 
           d="M34.5137 436q328.394 666.826 328.873 669q23.6133 48 24 109q-0.386719 47 -28.2021 81.6787q-28.1846 34.3213 -82.1846 34.3213q-142 0 -142 -225v-1559" 
           id="stroke-f-alt4-noentry1" />
        <path 
           d="M-25 112q41 -47 78.5 -62.5t79.5 -15.5t81 15.5t80 62"
           id="stroke-f-alt4-noentry2"  data-lift="1"/>
      </g>
      <g class="outline" id="outlines-f-alt4-noentry">
        <path id="outline-f-alt4-noentry1"
      d="M101 494q-20 -42 -35.4863 -73.0186q-10.5137 -18.9814 -30.5137 -18.9814q-14 0 -24.041 9.95215q-9.95898 10.0479 -9.95215 24.041q-0.00545994 6.39515 3.47949 15.0117q12.5137 25.9951 96.5137 196.995v-154zM101.007 1105q0 73.0248 16.0137 131.159
q10.9795 37.8408 30.5537 64.8877q19.4258 26.9531 42.29 39.6035q23.1357 13.3496 44.0439 18.1104q21.0918 5.23926 43.4785 5.23242q65.6133 0.00683594 104.875 -42.9902q38.7383 -43.0029 39.1182 -107.003q-0.379883 -69 -27.4854 -124.023
q0.105469 0.0234375 -32.7236 -66.5762q-33.1709 -66.4004 -82.0547 -166.721q-49.1162 -99.6797 -72.5908 -147.457q-23.5254 -47.2227 -37.5254 -76.2227v153l163.879 334.023q20.1211 40.9766 20.5146 93.9766q-0.393555 40 -22.7646 62.6367
q-19.6289 19.3633 -53.2422 19.3701q-14.3867 -0.00683594 -24.6455 -1.74707q-10.7412 -1.25977 -27.6191 -12.2402q-17.1221 -10.0195 -28.1133 -29.2236q-11.0088 -18.7959 -19.5371 -56.8428q-8.47852 -41.987 -8.47852 -90.9531v-1559.01
q0.00683594 -13.9932 -9.93066 -24.1025q-10.0625 -9.89062 -24.0625 -9.89062t-24.0625 9.89062q-9.93066 10.1024 -9.93066 24.1025v1559.01zM168.993 137z" />
        <path id="outline-f-alt4-noentry2"
    d="M-49.042 136.042q9.952 9.952 24.042 9.952q15.466 0 24.562 -10.427q36.802 -42.188 67.51 -54.881q30.707 -12.692 66.048 -12.692q35.341 0 68.293 13.096q31.382 12.472 66.945 53.239q10.175 11.664 24.954 11.664q14.778 0 24.506 -9.728q10.178 -10.178 10.178 -23.629t-8.731 -23.429q-46.237 -52.84 -91.981 -71.021q-45.745 -18.18 -94.404 -18.18t-92.394 18.077q-44.851 18.538 -91.128 71.588q-8.354 9.515 -8.354 22.966q0 13.451 9.954 23.405z" />
      </g>
    </g>  
    

    <!-- f-alt5 -->
    <g id="letter-f-alt5" data-nstrokes="2" data-width="619">
      <g class="strokes" id="strokes-f-alt5">
        <path 
           d="M35.3867 35l526 1070c15.9902 32.4951 24 72.8164 24 109c0 57.0312 -33.3867 116 -110.387 116c-110.66 0 -142 -102 -142 -225v-1559" 
           id="stroke-f-alt51" />
        <path 
           d="M207.651 385.262c46.3291 -39.0293 89.9551 -44.2617 126.349 -44.2617c61 0 115 15 158 64"
           id="stroke-f-alt52"  data-lift="1"/>
      </g>
      <g class="outline" id="outlines-f-alt5">
        <path id="outline-f-alt51"
      d="M299 494c-155.165 -315.981 -232.865 -473.984 -233.099 -474.011c-6.79523 -12.6546 -16.9665 -18.9819 -30.5139 -18.9819c-9.39275 0 -17.4065 3.31736 -24.0412 9.95207c-6.63474 6.63471 -9.9521 14.6485 -9.9521 24.0413c0 3.8006 1.15982 8.80443 3.47945 15.0115
c0.0375432 -0.00338973 15.9278 32.2639 47.6706 96.8018c31.7429 64.5379 74.4762 151.44 128.2 260.705c53.7238 109.265 93.1427 189.426 118.256 240.482v-154zM299.007 1105c-0.00666704 51 5.33341 95.053 16.0136 131.159
c7.31985 25.2273 17.5045 46.8566 30.554 64.8878c12.9506 17.9687 27.0473 31.1699 42.2902 39.6035c15.4238 8.89971 30.1051 14.9365 44.0439 18.1103c14.0612 3.49285 28.554 5.23705 43.4785 5.2326c43.7422 0.00444469 78.7005 -14.3258 104.875 -42.9906
c25.8256 -28.6685 38.865 -64.336 39.1184 -107.003c-0.253368 -46 -9.41515 -87.3412 -27.4854 -124.023c0.0702022 0.0156531 -10.8379 -22.1763 -32.7243 -66.5757c-22.1136 -44.2672 -49.4652 -99.8408 -82.0547 -166.721
c-32.7438 -66.4534 -56.9405 -115.606 -72.59 -147.457c-15.6838 -31.4819 -28.1924 -56.8895 -37.5257 -76.2228v153l163.879 334.023c13.4142 27.3177 20.2524 58.6432 20.5146 93.9765c-0.262257 26.6667 -7.85044 47.5455 -22.7645 62.6366
c-13.0859 12.9089 -30.8333 19.3656 -53.2421 19.37c-9.59115 -0.00444469 -17.8062 -0.586843 -24.6451 -1.74719c-7.16108 -0.839648 -16.3677 -4.91966 -27.6199 -12.24c-11.4145 -6.67963 -20.7855 -16.4208 -28.1129 -29.2236
c-7.33925 -12.5306 -13.8515 -31.4782 -19.5367 -56.8429c-5.65253 -25.3219 -8.47214 -55.953 -8.47881 -90.953l-0.000168896 -1559c0.00683594 -19 -15.208 -33.9932 -33.9932 -33.9932s-34 14.9932 -33.9932 33.9932z" />
        <path id="outline-f-alt52"
    d="M492 438.993c18.7856 0 33.9933 -15.2079 33.9933 -33.9933c0 -14.0084 -7.12276 -21.8197 -18.8541 -33.551c-49.5047 -49.5047 -111.157 -64.4423 -173.139 -64.4423c-39.0593 0 -92.6594 5.41492 -148.23 52.2298c-3.78493 3.18856 -12.1117 11.8176 -12.1117 26.0252
c0 18.7856 15.2079 33.9933 33.9933 33.9933c7.78801 0 15.576 -2.65603 21.8816 -7.96809c37.365 -31.4776 71.3266 -36.2936 104.467 -36.2936c52.5401 0 96.3598 11.3144 132.425 52.4117c3.30052 3.76106 11.8219 11.5883 25.5752 11.5883z" />
      </g>
    </g>   



    <!-- f-alt5-noentry -->
    <g id="letter-f-alt5-noentry" data-nstrokes="2" data-width="420">
      <g class="strokes" id="strokes-f-alt5-noentry">
        <path 
           d="M34.5137 436q328.394 666.826 328.873 669q23.6133 48 24 109q-0.386719 47 -28.2021 81.6787q-28.1846 34.3213 -82.1846 34.3213q-142 0 -142 -225v-1559" 
           id="stroke-f-alt5-noentry1" />
        <path 
           d="M9.651 385.262c46.329 -39.029 89.955 -44.262 126.349 -44.262c61 0 115 15 158 64"
           id="stroke-f-alt5-noentry2"  data-lift="1"/>
      </g>
      <g class="outline" id="outlines-f-alt5-noentry">
        <path id="outline-f-alt5-noentry1"
      d="M101 494q-20 -42 -35.4863 -73.0186q-10.5137 -18.9814 -30.5137 -18.9814q-14 0 -24.041 9.95215q-9.95898 10.0479 -9.95215 24.041q-0.00545994 6.39515 3.47949 15.0117q12.5137 25.9951 96.5137 196.995v-154zM101.007 1105q0 73.0248 16.0137 131.159
q10.9795 37.8408 30.5537 64.8877q19.4258 26.9531 42.29 39.6035q23.1357 13.3496 44.0439 18.1104q21.0918 5.23926 43.4785 5.23242q65.6133 0.00683594 104.875 -42.9902q38.7383 -43.0029 39.1182 -107.003q-0.379883 -69 -27.4854 -124.023
q0.105469 0.0234375 -32.7236 -66.5762q-33.1709 -66.4004 -82.0547 -166.721q-49.1162 -99.6797 -72.5908 -147.457q-23.5254 -47.2227 -37.5254 -76.2227v153l163.879 334.023q20.1211 40.9766 20.5146 93.9766q-0.393555 40 -22.7646 62.6367
q-19.6289 19.3633 -53.2422 19.3701q-14.3867 -0.00683594 -24.6455 -1.74707q-10.7412 -1.25977 -27.6191 -12.2402q-17.1221 -10.0195 -28.1133 -29.2236q-11.0088 -18.7959 -19.5371 -56.8428q-8.47852 -41.987 -8.47852 -90.9531v-1559.01
q0.00683594 -13.9932 -9.93066 -24.1025q-10.0625 -9.89062 -24.0625 -9.89062t-24.0625 9.89062q-9.93066 10.1024 -9.93066 24.1025v1559.01zM168.993 137z" />
        <path id="outline-f-alt5-noentry2"
    d="M294 438.993c18.786 0 33.993 -15.208 33.993 -33.993c0 -14.008 -7.123 -21.82 -18.854 -33.551c-49.505 -49.505 -111.157 -64.442 -173.139 -64.442c-39.059 0 -92.659 5.415 -148.23 52.23c-3.785 3.189 -12.112 11.818 -12.112 26.025c0 18.786 15.208 33.993 33.993 33.993c7.788 0 15.576 -2.656 21.882 -7.968c37.365 -31.478 71.327 -36.294 104.467 -36.294c52.54 0 96.36 11.314 132.425 52.412c3.301 3.761 11.822 11.588 25.575 11.588z" />
      </g>
    </g>  
        
    

    <!-- h -->
    <g id="letter-h" data-nstrokes="2" data-width="975" data-width1="620">
      <g class="strokes" id="strokes-h">
        <path 
           d="M35.3867 35l526 1070c15.9902 32.4951 24 72.8164 24 109c0 57.0312 -33 116 -110 116c-111.047 0 -142.387 -102 -142.387 -225v-1071" 
           id="stroke-h1" />
        <path 
           d="M333 34v307c0 107 145 307 287 307c76 0 134 -55 134 -137v-374c0 -54 17 -103 75.0039 -103c42 0 63 39 78 69c-0.00390625 0 33.377 68 33.377 68"
           id="stroke-h2" />
      </g>
      <g class="outline" id="outlines-h">
        <path id="outline-h1"
      d="M299.495 495l-233.595 -475.011c-5.54684 -11.2835 -17.1699 -18.9819 -30.5139 -18.9819c-18.7855 0 -33.9933 15.2077 -33.9933 33.9933c0 5.14642 1.15982 10.2928 3.47945 15.0115l293.557 597.989zM367 632c0 0 225 458 224.895 457.977
c19.1053 38.0235 27.4854 82.941 27.4854 124.023c0 82.5983 -53.8145 149.993 -143.993 149.993h-0.386719c-48.212 0 -114.93 -17.0608 -150.529 -101.287c-19.416 -45.9374 -25.4644 -100.581 -25.4644 -157.706v-1071c0 -18.7856 15.2079 -33.9933 33.9933 -33.9933
c18.7856 0 33.9933 15.2079 33.9933 33.9933v1071c0 64.1387 9.32148 139.391 48.5483 172.094c13.9422 11.6236 31.9234 18.9125 59.4584 18.9125h0.386719c26.0514 0 42.0321 -8.16006 53.2421 -19.37c14.4037 -14.4037 22.7645 -37.8172 22.7645 -62.6366
c0 -31.2847 -7.37456 -67.2467 -20.5146 -93.9765l-163.879 -334.023v-154z" />
        <path id="outline-h2"
    d="M720.007 511c0 63.5873 -43.0728 103.007 -100.007 103.007c-85.1256 0 -184.511 -95.5797 -230.575 -192.72c-14.9221 -31.468 -22.4316 -60.7223 -22.4316 -80.2867v-307c0 -18.7856 -15.2079 -33.9933 -33.9933 -33.9933
c-18.7856 0 -33.9933 15.2079 -33.9933 33.9933v307c0 75.3255 55.248 174.773 124.67 244.195c53.6331 53.6331 121.794 96.7983 196.323 96.7983c95.0094 0 167.993 -70.5385 167.993 -170.993v-374c0 -15.1166 1.7838 -46.5602 15.7849 -60.5613
c4.70937 -4.70937 10.9193 -8.4454 25.2257 -8.4454c14.9762 0 27.0877 9.22103 47.4771 49.9998c0.110141 0.222323 33.377 68 33.377 68c5.54055 11.288 17.1656 19.0002 30.5229 19.0002c18.7856 0 33.9933 -15.2079 33.9933 -33.9933
c0 -5.13976 -1.15682 -10.2795 -3.47045 -14.9932l-33.377 -68c-14.4833 -28.9666 -44.0001 -88.0002 -108.523 -88.0002c-29.5266 0 -108.997 11.6434 -108.997 136.993v374z" />
      </g>
    </g>

    <!-- h -->
    <g id="letter-h-noentry" data-nstrokes="2" data-width="775" data-width1="420">
      <g class="strokes" id="strokes-h-noentry">
        <path 
           d="M33.5137 436l328.873 669c15.6133 32 24 72.8164 24 109c0 57.0312 -34 116 -111 116c-111.047 0 -141.387 -102 -141.387 -225v-1071" 
           id="stroke-h-noentry1" />
        <path 
           d="M134 34v307c0 107 145 307 287 307c76 0 134 -55 134 -137v-374c0 -54 17 -103 75.004 -103c42 0 63 39 78 69c-0.004 0 33.377 68 33.377 68"
           id="stroke-h-noentry2" />
      </g>
      <g class="outline" id="outlines-h-noentry">
        <path id="outline-h-noentry1"
      d="M100.495 495l-36.9814 -74.0186c-5.54688 -11.2832 -17.1699 -18.9814 -30.5137 -18.9814c-18.7852 0 -33.9932 15.208 -33.9932 33.9932c0 5.14648 1.15918 10.293 3.47949 15.0117l96.9434 196.995zM168 632c0 0 225 458 224.895 457.977
c19.1055 38.0234 27.4854 82.9414 27.4854 124.023c0 82.5986 -53.8145 149.993 -143.993 149.993h-0.386719c-48.2119 0 -114.93 -17.0605 -150.529 -101.287c-19.416 -45.9375 -25.4639 -100.581 -25.4639 -157.706v-1071c0 -18.7852 15.208 -33.9932 33.9932 -33.9932
s33.9932 15.208 33.9932 33.9932v1071c0 64.1387 9.32129 139.391 48.5488 172.094c13.9414 11.624 31.9229 18.9131 59.458 18.9131h0.386719c26.0518 0 42.0322 -8.16016 53.2422 -19.3701c14.4033 -14.4033 22.7646 -37.8174 22.7646 -62.6367
c0 -31.2852 -7.375 -67.2471 -20.5146 -93.9766l-163.879 -334.023v-154z" />
        <path id="outline-h-noentry2"
    d="M521.007 511c0 63.587 -43.073 103.007 -100.007 103.007c-85.126 0 -184.511 -95.58 -230.575 -192.72c-14.922 -31.468 -22.432 -60.722 -22.432 -80.287v-307c0 -18.786 -15.208 -33.993 -33.993 -33.993c-18.786 0 -33.993 15.208 -33.993 33.993v307c0 75.326 55.248 174.773 124.67 244.195c53.633 53.633 121.794 96.798 196.323 96.798c95.009 0 167.993 -70.538 167.993 -170.993v-374c0 -15.117 1.784 -46.56 15.785 -60.561c4.709 -4.709 10.919 -8.445 25.226 -8.445c14.976 0 27.088 9.221 47.477 50c0.11 0.222 33.377 68 33.377 68c5.541 11.288 17.166 19 30.523 19c18.786 0 33.993 -15.208 33.993 -33.993c0 -5.14 -1.157 -10.28 -3.47 -14.993l-33.377 -68c-14.483 -28.967 -44 -88 -108.523 -88c-29.527 0 -108.997 11.643 -108.997 136.993v374z" />
      </g>
    </g>


    <!-- k -->
    <g id="letter-k" data-nstrokes="3" data-width="930" data-width1="620">
      <g class="strokes" id="strokes-k">
        <path 
           d="M35.3867 35l526 1070c15.9902 32.4951 24 72.8164 24 109c0 57.0312 -33 116 -110 116c-111.047 0 -142.387 -102 -142.387 -225v-1071" 
           id="stroke-k1" />
        <path 
           d="M333 34v307c0 107 145 307 287 307c75 0 134 -57 134 -124c0 -85 -73 -105 -183 -133c-83.5654 -21.2715 -214.944 -45.751 -238 -50"
           id="stroke-k2" />
        <path 
           d="M333 342c190 -145 320.98 -245.033 385 -293c21.1289 -15.8311 39 -15 68.0039 -15c42 0 63 39 78 69c-0.00390625 0 33.377 68 33.377 68"
           id="stroke-k3" />
      </g>
      <g class="outline" id="outlines-k">
        <path id="outline-k1"
      d="M299.495 495l-233.595 -475.011c-5.54684 -11.2835 -17.1699 -18.9819 -30.5139 -18.9819c-18.7855 0 -33.9933 15.2077 -33.9933 33.9933c0 5.14642 1.15982 10.2928 3.47945 15.0115l293.557 597.989zM367 632c0 0 225 458 224.895 457.977
c19.1053 38.0235 27.4854 82.941 27.4854 124.023c0 82.5983 -53.8145 149.993 -143.993 149.993h-0.386719c-48.212 0 -114.93 -17.0608 -150.529 -101.287c-19.416 -45.9374 -25.4644 -100.581 -25.4644 -157.706v-1071c0 -18.7856 15.2079 -33.9933 33.9933 -33.9933
c18.7856 0 33.9933 15.2079 33.9933 33.9933v1071c0 64.1387 9.32148 139.391 48.5483 172.094c13.9422 11.6236 31.9234 18.9125 59.4584 18.9125h0.386719c26.0514 0 42.0321 -8.16006 53.2421 -19.37c14.4037 -14.4037 22.7645 -37.8172 22.7645 -62.6366
c0 -31.2847 -7.37456 -67.2467 -20.5146 -93.9765l-163.879 -334.023v-154z" />
        <path id="outline-k2"
    d="M333 0.00666704c18.7856 0 33.9933 15.2079 33.9933 33.9933l-0.000168896 279c-13.9269 -2.53256 -22.1001 -4.11131 -33.9932 -5.99333c-19 -3.00667 -34 18.9933 -33.9932 33.9933c0.00397042 8.71223 4.99316 29 27.7938 33.4273
c19.1709 3.72246 32.3003 6.41508 48.1994 9.57275c15 48 49.481 105.832 96.7604 153.112c46.8756 46.8756 101.29 76.8949 148.24 76.8949c56.1298 0 100.007 -41.8207 100.007 -90.0067c0 -28.0304 -7.3246 -50.3056 -59.8018 -71.2529
c-56.2447 -22.4512 -199.318 -53.6085 -333.404 -78.3198c-15.9894 -2.94676 -27.8006 -17.4273 -27.794 -33.4273c0.00782779 -18.7856 16.9933 -36 33.9933 -33.9933c6.03084 0.711876 262.102 46.5254 352.472 82.5983c32.4012 12.9336 102.521 44.0006 102.521 134.395
c0 85.7616 -74.1078 157.993 -167.993 157.993c-126.866 0 -242.535 -127.193 -292.017 -231.54c-17.7269 -37.383 -28.9768 -74.589 -28.9768 -109.453v-307c0 -18.7856 15.2079 -33.9933 33.9933 -33.9933z" />
        <path id="outline-k3"
    d="M786.004 0.00666704c-2.82013 0 -11.9338 -0.0231739 -12.0543 -0.0231739c-21.0451 0 -48.2182 0.734137 -76.3116 21.7834c-42.0523 31.5078 -63.3087 47.4908 -385.239 293.181c-3.78721 2.89024 -13.392 11.7308 -13.392 27.0521
c0 18.7856 15.2079 33.9933 33.9933 33.9933c7.26887 0 14.5377 -2.31373 20.6013 -6.9412c224.11 -171.036 325.76 -248.612 384.761 -292.819c9.34989 -7.00551 14.6805 -8.24455 42.2122 -8.24455c0.054297 0 4.44004 0.00478436 5.4297 0.00478436
c14.9762 0 27.0877 9.22103 47.4771 49.9998c0.110141 0.222323 33.377 68 33.377 68c5.54055 11.288 17.1656 19.0002 30.5229 19.0002c18.7856 0 33.9933 -15.2079 33.9933 -33.9933c0 -5.13976 -1.15682 -10.2795 -3.47045 -14.9932l-33.377 -68
c-14.4833 -28.9666 -44.0001 -88.0002 -108.523 -88.0002z" />
      </g>
    </g>

    <!-- min k (no entry stroke) -->
    <g id="letter-k-noentry" data-nstrokes="3" data-width="730" data-width1="420">
      <g class="strokes" id="strokes-k-noentry">
        <path 
           d="M33.5137 436l328.873 669c15.6133 32 24 72.8164 24 109c0 57.0312 -34 116 -111 116c-111.047 0 -141.387 -102 -141.387 -225v-1071" 
           id="stroke-k-noentry1" />
        <path 
           d="M134 34v307c0 107 145 307 287 307c75 0 134 -57 134 -124c0 -85 -73 -105 -183 -133c-83.565 -21.272 -214.944 -45.751 -238 -50"
           id="stroke-k-noentry2" />
        <path 
           d="M134 342c190 -145 320.98 -245.033 385 -293c21.129 -15.831 39 -15 68.004 -15c42 0 63 39 78 69c-0.004 0 33.377 68 33.377 68"
           id="stroke-k-noentry3" />
      </g>
      <g class="outline" id="outlines-k-noentry">
        <path id="outline-k-noentry1"
      d="M100.495 495l-36.9814 -74.0186c-5.54688 -11.2832 -17.1699 -18.9814 -30.5137 -18.9814c-18.7852 0 -33.9932 15.208 -33.9932 33.9932c0 5.14648 1.15918 10.293 3.47949 15.0117l96.9434 196.995zM168 632c0 0 225 458 224.895 457.977
c19.1055 38.0234 27.4854 82.9414 27.4854 124.023c0 82.5986 -53.8145 149.993 -143.993 149.993h-0.386719c-48.2119 0 -114.93 -17.0605 -150.529 -101.287c-19.416 -45.9375 -25.4639 -100.581 -25.4639 -157.706v-1071c0 -18.7852 15.208 -33.9932 33.9932 -33.9932
s33.9932 15.208 33.9932 33.9932v1071c0 64.1387 9.32129 139.391 48.5488 172.094c13.9414 11.624 31.9229 18.9131 59.458 18.9131h0.386719c26.0518 0 42.0322 -8.16016 53.2422 -19.3701c14.4033 -14.4033 22.7646 -37.8174 22.7646 -62.6367
c0 -31.2852 -7.375 -67.2471 -20.5146 -93.9766l-163.879 -334.023v-154z" />
        <path id="outline-k-noentry2"
    d="M134 0.007c18.786 0 33.993 15.208 33.993 33.993l0 279c-13.927 -2.533 -22.1 -4.111 -33.993 -5.993c-19 -3.007 -34 18.993 -33.993 33.993c0.004 8.712 4.993 29 27.794 33.427c19.171 3.722 32.3 6.415 48.199 9.573c15 48 49.481 105.832 96.76 153.112c46.876 46.876 101.29 76.895 148.24 76.895c56.13 0 100.007 -41.821 100.007 -90.007c0 -28.03 -7.325 -50.306 -59.802 -71.253c-56.245 -22.451 -199.318 -53.608 -333.404 -78.32c-15.989 -2.947 -27.801 -17.427 -27.794 -33.427c0.008 -18.786 16.993 -36 33.993 -33.993c6.031 0.712 262.102 46.525 352.472 82.598c32.401 12.934 102.521 44.001 102.521 134.395c0 85.762 -74.108 157.993 -167.993 157.993c-126.866 0 -242.535 -127.193 -292.017 -231.54c-17.727 -37.383 -28.977 -74.589 -28.977 -109.453v-307c0 -18.786 15.208 -33.993 33.993 -33.993z" />
        <path id="outline-k-noentry3"
    d="M587.004 0.007c-2.82 0 -11.934 -0.023 -12.054 -0.023c-21.045 0 -48.218 0.734 -76.312 21.783c-42.052 31.508 -63.309 47.491 -385.239 293.181c-3.787 2.89 -13.392 11.731 -13.392 27.052c0 18.786 15.208 33.993 33.993 33.993c7.269 0 14.538 -2.314 20.601 -6.941c224.11 -171.036 325.76 -248.612 384.761 -292.819c9.35 -7.006 14.681 -8.245 42.212 -8.245c0.054 0 4.44 0.005 5.43 0.005c14.976 0 27.088 9.221 47.477 50c0.11 0.222 33.377 68 33.377 68c5.541 11.288 17.166 19 30.523 19c18.786 0 33.993 -15.208 33.993 -33.993c0 -5.14 -1.157 -10.28 -3.47 -14.993l-33.377 -68c-14.483 -28.967 -44 -88 -108.523 -88z" />
      </g>
    </g>

    <!-- l -->
    <g id="letter-l" data-nstrokes="1" data-width="619">
      <g class="strokes" id="strokes-l">
        <path 
           d="M35.3867 35l526 1070c15.9902 32.4951 24 72.8164 24 109c0 57.0312 -33 116 -110 116c-111.047 0 -142.387 -102 -142.387 -225v-968c0 -54 17 -103 75 -103c42 0 63 39 78 69l33.377 68" 
           id="stroke-l1" />
      </g>
      <g class="outline" id="outlines-l">
        <path id="outline-l1"
      d="M367 633c0 0 225 457 224.895 456.977c19.1053 38.0235 27.4854 82.941 27.4854 124.023c0 82.5983 -53.8145 149.993 -143.993 149.993c-53.0361 0 -128.361 -20.5552 -160.367 -127.834c-11.8885 -39.8491 -16.0136 -84.5921 -16.0136 -131.159v-968
c0 -42.8088 9.34942 -82.3066 35.6885 -108.646c18.2662 -18.2662 44.0526 -28.3477 73.3049 -28.3477c64.5228 0 94.2531 58.928 108.523 87.9996l33.3772 68.0005c2.31364 4.71365 3.47045 9.8534 3.47045 14.9932c0 18.7856 -15.2079 33.9933 -33.9933 33.9933
c-13.359 0 -24.9831 -7.71385 -30.5229 -19.0002c0 0 -33.2668 -67.7777 -33.377 -68c-20.4031 -40.8062 -32.5148 -49.9998 -47.4771 -49.9998c-14.2176 0 -27.7054 2.88069 -35.5296 26.9806c-3.55919 10.963 -5.47705 25.7491 -5.47705 42.0261v968
c0 185.845 74.7136 191.007 108.393 191.007c26.0514 0 42.0321 -8.16006 53.2421 -19.37c14.4037 -14.4037 22.7645 -37.8172 22.7645 -62.6366c0 -31.2847 -7.37456 -67.2467 -20.5146 -93.9765l-163.879 -334.023v-153zM299 494
c-88.4209 -180.062 -233 -474 -233.099 -474.011c-5.9006 -10.9885 -17.1699 -18.9819 -30.5139 -18.9819c-18.7855 0 -33.9933 15.2077 -33.9933 33.9933c0 5.14642 1.60661 10 3.47945 15.0115c0.127161 -0.0114812 188.121 382.48 294.127 597.989v-154z" />
      </g>
    </g>

    <!-- l -->
    <g id="letter-l-noentry" data-nstrokes="1" data-width="419">
      <g class="strokes" id="strokes-l-noentry">
        <path 
           d="M34.5137 436l328.873 669c15.6133 32 24 72.8164 24 109c0 57.0312 -33 116 -110 116c-111.047 0 -142.387 -102 -142.387 -225v-968c0 -54 17 -103 75 -103c42 0 63 39 78 69l33.377 68" 
           id="stroke-l-noentry1" />
      </g>
      <g class="outline" id="outlines-l-noentry">
        <path id="outline-l-noentry1"
      d="M169 633c0 0 225 457 224.895 456.977c19.1055 38.0234 27.4854 82.9414 27.4854 124.023c0 82.5986 -53.8145 149.993 -143.993 149.993c-53.0361 0 -128.361 -20.5547 -160.366 -127.834c-11.8887 -39.8496 -16.0137 -84.5918 -16.0137 -131.159v-968
c0 -42.8086 9.34961 -82.3066 35.6885 -108.646c18.2656 -18.2666 44.0527 -28.3477 73.3047 -28.3477c64.5225 0 94.2529 58.9277 108.522 87.999l33.377 68.001c2.31445 4.71387 3.4707 9.85352 3.4707 14.9932c0 18.7852 -15.208 33.9932 -33.9932 33.9932
c-13.3594 0 -24.9834 -7.71387 -30.5225 -19c0 0 -33.2676 -67.7773 -33.377 -68c-20.4033 -40.8066 -32.5156 -50 -47.4775 -50c-14.2178 0 -27.7051 2.88086 -35.5293 26.9805c-3.55957 10.9629 -5.47754 25.749 -5.47754 42.0264v968
c0 185.846 74.7139 191.007 108.394 191.007c26.0518 0 42.0322 -8.16016 53.2422 -19.3701c14.4033 -14.4033 22.7646 -37.8174 22.7646 -62.6367c0 -31.2852 -7.375 -67.2471 -20.5146 -93.9766l-163.879 -334.023v-153zM101 494
c-20.3309 -40.7697 -22 -45 -36.4863 -73.0186c-5.72816 -11.079 -17.1699 -18.9814 -30.5137 -18.9814c-18.7852 0 -33.9932 15.208 -33.9932 33.9932c0 5.14648 1.60645 10 3.47949 15.0117c0.126953 -0.0117188 -8.49219 -18.5137 97.5137 196.995v-154z" />
      </g>
    </g>

    <!-- o -->
    <g id="letter-o" data-nstrokes="3" data-width="966" data-width1="665" data-width2="749">
      <g class="strokes" id="strokes-o">
        <path 
           d="M35.3867 34l311.999 512c38.6719 62.333 94.6465 102 156.614 102c46.7266 0 90.0459 -23.3916 124.549 -59.9873"
           id="stroke-o1" />
        <path 
           d="M628.701 588.268c-35.0006 37.5175 -78.1608 59.7315 -124.701 59.7315c-116 0 -211 -139 -211 -308s95 -306 211 -306c27.6025 0 54.0166 7.81348 78.2441 22c77.5879 45.4307 132.756 156.214 132.756 285c0 101.195 -34.062 191.275 -86.2986 247.268"
           id="stroke-o2"/>
        <path 
           d="M628.701 588.268 h1"
           id="overlap-o2" /><!-- 1. use overlap only if as troke overlaps ITSELF, not if two strokes overlap each other. 2. must be a path, not a dot-->
        <path 
           d="M628.549 589.013c41.4512 -35.0127 80.4404 -43.0127 125.451 -43.0127c28.1035 0 64.4473 8.67871 96 25.1768c36 18.8232 62 41.8232 82 76.8232"
           id="stroke-o3"/>
           
      </g>
      <g class="outline" id="outlines-o">
        <path id="outline-o1"
    d="M35.3867 0q-14.0738 0 -24.0369 9.96308t-9.96308 24.0369q0 9.54226 4.94444 17.6562l312.141 512.233q33.5083 54.0101 81.5492 86.0606q48.0409 32.0505 103.979 32.0505q82.6559 0 149.288 -70.6735q9.26096 -9.82268 9.26096 -23.3138q0 -14.0738 -9.96308 -24.0369
t-24.0369 -9.96308q-14.664 0 -24.739 10.6862q-46.4818 49.3011 -99.8098 49.3011q-35.2167 0 -68.5505 -22.1599q-33.3337 -22.1599 -59.0812 -63.6161l-311.926 -511.88q-9.95945 -16.3438 -29.0556 -16.3438z" />
        <path id="outline-o2"
    d="M607 614c11.5187 10.0163 29 13 45 -1c-38 43 -93.2046 68.9933 -148 68.9933c-134.644 0 -244.993 -151.329 -244.993 -341.993c0 -190.719 110.5 -339.993 244.993 -339.993c134.669 0 244.993 150.416 244.993 340.993c0 108.636 -36.0003 206.758 -95.4178 270.448
c-3.44085 3.68829 -11.7821 10.8137 -24.8742 10.8137c-18.7856 0 -33.9933 -15.2079 -33.9933 -33.9933c0 -8.33155 3.04002 -16.663 9.11912 -23.1796c45.0557 -48.2959 77.1795 -130.334 77.1795 -224.089c0 -148.281 -80.8335 -273.007 -177.007 -273.007
c-96.3707 0 -177.007 123.916 -177.007 272.007c0 148.225 80.8429 274.007 177.007 274.007c14.9773 0 56.5037 -2.47897 99.8271 -48.9179c-4.82714 4.9112 -19.8271 28.9112 3.17286 48.9112z" />
        <path id="outline-o3"
    d="M932 681.993c18.7856 0 33.9933 -15.2079 33.9933 -33.9933c0 -5.82888 -1.48782 -11.6578 -4.46347 -16.8651c-24.0121 -42.0211 -55.6626 -69.1216 -95.7702 -90.0925c-36.543 -19.1073 -76.9875 -29.0356 -111.76 -29.0356
c-48.8528 0 -97.2088 8.64235 -147.367 51.0096c-3.78518 3.19724 -12.0776 11.8196 -12.0776 25.9965c0 18.7856 15.2079 33.9933 33.9933 33.9933c7.80206 0 15.6041 -2.66562 21.9157 -7.99687c33.0863 -27.9471 63.0137 -35.0158 103.535 -35.0158
c33.9244 0 88.7032 17.1214 123.972 52.3898c18.9944 18.9944 22.7923 32.464 29.9868 39.6585c6.63447 6.63447 15.338 9.9517 24.0416 9.9517z" />
      </g>
    </g>


    <!-- o-noentry -->
    <g id="letter-o-noentry" data-nstrokes="2" data-width="707" data-width1="490">
      <g class="strokes" id="strokes-o-noentry">
        <path 
           d="M369.701 588.268c-35.001 37.518 -78.161 59.731 -124.701 59.731c-116 0 -211 -139 -211 -308s95 -306 211 -306c27.602 0 54.017 7.813 78.244 22c77.588 45.431 132.756 156.214 132.756 285c0 101.195 -34.062 191.275 -86.299 247.268"
           id="stroke-o-noentry1"/>
        <path 
           d="M369.701 588.268h1"
           id="overlap-o-noentry1" /><!-- 1. use overlap only if as troke overlaps ITSELF, not if two strokes overlap each other. 2. must be a path, not a dot-->
        <path 
           d="M369.549 589.013c41.451 -35.013 80.44 -43.013 125.451 -43.013c28.104 0 64.447 8.679 96 25.177c36 18.823 62 41.823 82 76.823"
           id="stroke-o-noentry2"/>
           
      </g>
      <g class="outline" id="outlines-o-noentry">
        <path id="outline-o-noentry1"
    d="M348 614c11.519 10.016 29 13 45 -1c-38 43 -93.205 68.993 -148 68.993c-134.644 0 -244.993 -151.329 -244.993 -341.993c0 -190.719 110.5 -339.993 244.993 -339.993c134.669 0 244.993 150.416 244.993 340.993c0 108.636 -36 206.758 -95.418 270.448c-3.441 3.688 -11.782 10.814 -24.874 10.814c-18.786 0 -33.993 -15.208 -33.993 -33.993c0 -8.332 3.04 -16.663 9.119 -23.18c45.056 -48.296 77.179 -130.334 77.179 -224.089c0 -148.281 -80.833 -273.007 -177.007 -273.007c-96.371 0 -177.007 123.916 -177.007 272.007c0 148.225 80.843 274.007 177.007 274.007c14.977 0 56.504 -2.479 99.827 -48.918c-4.827 4.911 -19.827 28.911 3.173 48.911z" />
        <path id="outline-o-noentry2"
    d="M673 681.993c18.786 0 33.993 -15.208 33.993 -33.993c0 -5.829 -1.488 -11.658 -4.463 -16.865c-24.012 -42.021 -55.663 -69.122 -95.77 -90.092c-36.543 -19.107 -76.987 -29.036 -111.76 -29.036c-48.853 0 -97.209 8.642 -147.367 51.01c-3.785 3.197 -12.078 11.82 -12.078 25.996c0 18.786 15.208 33.993 33.993 33.993c7.802 0 15.604 -2.666 21.916 -7.997c33.086 -27.947 63.014 -35.016 103.535 -35.016c33.924 0 88.703 17.121 123.972 52.39c18.994 18.994 22.792 32.464 29.987 39.659c6.634 6.634 15.338 9.952 24.042 9.952z" />
      </g>
    </g>
    
    
  </defs>
</svg>
