<?xml version="1.0" encoding="UTF-8" standalone="no"?>
<svg
   xmlns:dc="http://purl.org/dc/elements/1.1/"
   xmlns:cc="http://creativecommons.org/ns#"
   xmlns:rdf="http://www.w3.org/1999/02/22-rdf-syntax-ns#"
   xmlns:svg="http://www.w3.org/2000/svg"
   xmlns="http://www.w3.org/2000/svg"
   xmlns:xlink="http://www.w3.org/1999/xlink"
   version="1.1"
   viewBox="-10 -10 2900 1000"
   id="svg8">
  <defs id="shapedefs">
  
    <!-- empty (for showing lines) -->
    <g id="letter-empty" data-nstrokes="0" data-width="500">
    </g>



  
    <!-- a -->
    <g id="letter-a" data-nstrokes="3" data-width="930" data-width1="740" data-width2="740">
      <g class="strokes" id="strokes-a">
        <path data-entry="1"
           d="M35.387 35C35.387 35 371.387 512 371.427 512.429C433.157 592.29 527.789 648 652 648L705 648" 
           id="stroke-a1" />
        <path 
           d="M705 648h-53c-242.074 0 -368 -204 -368 -408c0 -132 58 -206 134 -206c142 0 287 200 287 307v305"
           id="stroke-a2" />
        <path 
           d="M705 648C704 652 705 138.414 705 137C705 83 722 34 780.004 34C822.004 34 843.004 73 858.004 103L891.381 171"
           id="stroke-a3" />
        <path 
           d="M705 648 h1"
           id="overlap-a2" /><!-- 1. use overlap only if as troke overlaps ITSELF, not if two strokes overlap each other. 2. must be a path, not a dot-->
      </g>
      <g class="outline" id="outlines-a">
        <path id="outline-a1"
      d="M35.387 1.007c-18.786 0 -33.993 15.208 -33.993 33.993c0 6.852 2.056 13.705 6.169 19.547c336.476 478.049 336.476 478.049 336.94 478.649c44.861 58.037 141.552 148.797 307.498 148.797h53c18.786 0 33.993 -15.208 33.993 -33.993c0 -18.786 -15.208 -33.993 -33.993 -33.993h-53c-69.873 0 -179.055 -16.426 -253.195 -121.76l-335.593 -476.794c-2.623 -3.727 -11.579 -14.446 -27.825 -14.446z" />
        <path id="outline-a2"
    d="M705 681.993l-53 0c-256.745 0 -401.993 -213.571 -401.993 -441.993c0 -85.755 22.397 -154.006 65.131 -196.741c27.807 -27.807 63.917 -43.253 102.862 -43.253c126.866 0 242.535 127.193 292.017 231.54c17.727 37.383 28.977 74.589 28.977 109.453c0 303 0 307 0 307c0 18.785 -15.208 33.987 -33.993 33.993c-22 0.007 -33.993 -15.208 -33.993 -33.993l0 -307c0 -47.539 -40.177 -131.522 -104.767 -196.112c-46.876 -46.876 -101.29 -76.895 -148.24 -76.895c-64.073 0 -100.007 74.496 -100.007 172.007c0 178.683 106.26 374.007 334.007 374.007l19 0l0.007 33.993c0.007 35 33.993 33.993 33.993 33.993z" />
        <path id="outline-a3"
    d="M738.549 517.872c0 -153.906 0.444 -377.063 0.444 -380.872c0 -17.687 2.392 -54.382 21.536 -64.884c4.128 -2.265 9.907 -4.122 19.471 -4.122c14.928 0 27.015 9.07 47.591 50.222l33.267 67.778c5.541 11.288 17.166 19 30.523 19c18.786 0 33.993 -15.208 33.993 -33.993c0 -5.14 -1.157 -10.28 -3.47 -14.993l-33.487 -68.222c-14.354 -28.708 -43.889 -87.778 -108.417 -87.778c-30.236 0 -108.993 11.999 -108.993 137.008c-0.371 239.259 -0.444 286.65 -0.444 380.611c0 134.809 0.375 129.252 0.375 130.557c0 0.268 -0.01 0.465 -0.01 0.708c0 0.077 0.084 3.537 1.129 7.608c0.377 1.469 -0.977 5.699 8.888 15.564c3.788 3.788 12.39 9.952 24.09 9.952c18.422 0 33.96 -14.758 33.96 -34.015c0 -1.301 -0.444 15.595 -0.444 -130.128z" />
       
      </g>
    </g>

    <!-- min a (no entry stroke) -->
    <g id="letter-mina" data-nstrokes="2" data-width="720" data-width1="530" data-width2="530">
      <g class="strokes" id="strokes-mina">
        <path 
           d="M495 648h-53c-242.074 0 -368 -204 -368 -408c0 -132 58 -206 134 -206c142 0 287 200 287 307v305"
           id="stroke-mina1" />
        <path 
           d="M495 648C494 652 495 138.414 495 137C495 83 512 34 570.004 34C612.004 34 633.004 73 648.004 103L681.381 171"
           id="stroke-mina2" />
        <path 
           d="M495 648 h1"
           id="overlap-mina1" /><!-- 1. use overlap only if as troke overlaps ITSELF, not if two strokes overlap each other. 2. must be a path, not a dot-->
      </g>
      <g class="outline" id="outlines-mina">
        <path id="outline-mina1"
    d="M495 681.993l-53 0c-256.745 0 -401.993 -213.571 -401.993 -441.993c0 -85.755 22.397 -154.006 65.131 -196.741c27.807 -27.807 63.917 -43.253 102.862 -43.253c126.866 0 242.535 127.193 292.017 231.54c17.727 37.383 28.977 74.589 28.977 109.453c0 303 0 307 0 307c0 18.785 -15.208 33.987 -33.993 33.993c-22 0.007 -33.993 -15.208 -33.993 -33.993l0 -307c0 -47.539 -40.177 -131.522 -104.767 -196.112c-46.876 -46.876 -101.29 -76.895 -148.24 -76.895c-64.073 0 -100.007 74.496 -100.007 172.007c0 178.683 106.26 374.007 334.007 374.007l19 0l0.007 33.993c0.007 35 33.993 33.993 33.993 33.993z" />
        <path id="outline-mina2"
    d="M528.549 517.872c0 -153.906 0.444 -377.063 0.444 -380.872c0 -17.687 2.392 -54.382 21.536 -64.884c4.128 -2.265 9.907 -4.122 19.471 -4.122c14.928 0 27.015 9.07 47.591 50.222l33.267 67.778c5.541 11.288 17.166 19 30.523 19c18.786 0 33.993 -15.208 33.993 -33.993c0 -5.14 -1.157 -10.28 -3.47 -14.993l-33.487 -68.222c-14.354 -28.708 -43.889 -87.778 -108.417 -87.778c-30.236 0 -108.993 11.999 -108.993 137.008c-0.371 239.259 -0.444 286.65 -0.444 380.611c0 134.809 0.375 129.252 0.375 130.557c0 0.268 -0.01 0.465 -0.01 0.708c0 0.077 0.084 3.537 1.129 7.608c0.377 1.469 -0.977 5.699 8.888 15.564c3.788 3.788 12.39 9.952 24.09 9.952c18.422 0 33.96 -14.758 33.96 -34.015c0 -1.301 -0.444 15.595 -0.444 -130.128z" />
      </g>
    </g>

    <!-- f -->
    <g id="letter-f" data-nstrokes="2" data-width="605">
      <g class="strokes" id="strokes-f">
        <path 
           d="M35.3867 35l526 1070c15.9902 32.4951 24 72.8164 24 109c0 57.0312 -31 116 -111 116c-111.047 0 -141.387 -102 -141.387 -225v-1527c0 -123 41 -225 119 -225s119 102 119 225c0 186.682 -106 455.944 -235.332 455.944" 
           id="stroke-f1" />
        <path 
           d="M337 34c45 0 96.7207 23.9043 158 137"
           id="stroke-f2" />
      </g>
      <g class="outline" id="outlines-f">
        <path id="outline-f1"
      d="M299.439 495l-233.539 -475.011c-5.54684 -11.2835 -17.1699 -18.9819 -30.5139 -18.9819c-18.7855 0 -33.9933 15.2077 -33.9933 33.9933c0 5.14642 1.15982 10.2928 3.47945 15.0115l294.358 597.989zM367.575 787l163.304 333.023
c13.1401 26.7298 20.5146 62.6918 20.5146 93.9765c0 25.3337 -8.02505 48.5491 -22.1564 62.6804c-10.9704 10.9704 -27.1529 19.3262 -54.8503 19.3262c-36.7778 0 -107.393 -7.88191 -107.393 -191.007c0 0 0.00666704 -1041 -0.000168896 -1041
c0.315717 0 -11.9932 4 -31.3252 3.9375c-11.668 0.0625 -34.668 -7.9375 -35.9932 -33.9932c0.325195 -20.9443 19.3252 -33.9443 35.9932 -33.9932c16.332 0.0488281 31.6484 -7.95117 31.3252 -7.95117c0.00683594 0 0 -414 0 -414
c0 -82.8613 19.8184 -146.492 47.8513 -174.525c11.5348 -11.5348 22.95 -16.4813 37.1556 -16.4813c14.2055 0 25.6207 4.94649 37.1556 16.4813c44.9355 44.9355 47.8511 148.426 47.8511 174.525c0 181.562 -103.897 421.951 -201.339 421.951
c-18.7852 0 -35.9932 15.208 -35.9932 33.9932s17.208 33.9932 35.9932 33.9932c159.605 0 269.325 -295.511 269.325 -489.938c0 -156.778 -60.2494 -258.993 -152.993 -258.993c-92.7521 0 -152.993 102.229 -152.993 258.993v1527
c0 46.6189 3.99944 91.4158 15.7632 131.322c31.484 106.802 106.101 127.672 159.617 127.672c91.6899 0 144.993 -65.6839 144.993 -149.993c0 -41.0825 -8.65557 -85.7579 -27.4854 -124.023l-224.203 -455.977z" />
        <path id="outline-f2"
    d="M495 204.993c18.7856 0 33.9933 -15.2079 33.9933 -33.9933c0 -5.58177 -1.36434 -11.1635 -4.09303 -16.1995c-55.3552 -102.162 -113.689 -154.794 -187.9 -154.794c-18.7856 0 -33.9933 15.2079 -33.9933 33.9933c0 18.7856 15.2079 33.9933 33.9933 33.9933
c22.059 0 66.3121 5.17238 128.1 119.206c5.76126 10.6329 17.0302 17.7938 29.9003 17.7938z" />
      </g>
    </g>


    <!-- f -->
    <g id="letter-minf" data-nstrokes="2" data-width="420">
      <g class="strokes" id="strokes-minf">
        <path 
           d="M34.5137 436l328.873 669c15.6133 32 24 72.8164 24 109c0 57.0312 -31 116 -108 116  c-111.047 0 -141.387 -102 -141.387 -225v-1527c0 -123 41 -225 119 -225s119 102 119 225c0 186.682 -106 455.944 -235.332 455.944" 
           id="stroke-minf1" />
        <path 
           d="M131 34c45 0 104.721 23.904 166 137"
           id="stroke-minf2" />
      </g>
      <g class="outline" id="outlines-minf">
        <path id="outline-minf1"
      d="M101.439 495l-36.9258 -74.0186c-5.54688 -11.2832 -17.1699 -18.9814 -30.5137 -18.9814c-18.7852 0 -33.9932 15.208 -33.9932 33.9932c0 5.14648 1.15918 10.293 3.47949 15.0117l97.7441 196.995zM169.575 787l163.304 333.023
c13.1396 26.7295 20.5146 62.6914 20.5146 93.9766c0 25.334 -8.02539 48.5488 -22.1562 62.6807c-10.9707 10.9697 -27.1533 19.3262 -54.8506 19.3262c-36.7773 0 -107.394 -7.88184 -107.394 -191.007c0 0 0.00683594 -1041 0 -1041
c0.31543 0 -11.9932 4 -31.3252 3.9375c-11.668 0.0625 -34.668 -7.9375 -35.9932 -33.9932c0.325195 -20.9443 19.3252 -33.9443 35.9932 -33.9932c16.332 0.0488281 31.6484 -7.95117 31.3252 -7.95117c0.00683594 0 0 -414 0 -414
c0 -82.8613 19.8184 -146.492 47.8516 -174.525c11.5342 -11.5352 22.9502 -16.4814 37.1553 -16.4814s25.6211 4.94629 37.1553 16.4814c44.9355 44.9355 47.8516 148.427 47.8516 174.525c0 181.562 -103.897 421.951 -201.339 421.951
c-18.7852 0 -35.9932 15.208 -35.9932 33.9932s17.208 33.9932 35.9932 33.9932c159.605 0 269.325 -295.511 269.325 -489.938c0 -156.778 -60.249 -258.993 -152.993 -258.993c-92.752 0 -152.993 102.229 -152.993 258.993v1527
c0 46.6191 3.99902 91.416 15.7627 131.321c31.4844 106.802 106.101 127.672 159.617 127.672c91.6895 0 144.993 -65.6836 144.993 -149.993c0 -41.082 -8.65527 -85.7578 -27.4854 -124.023l-224.203 -455.977z" />
        <path id="outline-minf2"
    d="M297 204.993c18.786 0 33.993 -15.208 33.993 -33.993c0 -5.582 -1.364 -11.163 -4.093 -16.199c-55.355 -102.162 -113.689 -154.794 -187.9 -154.794c-18.786 0 -33.993 15.208 -33.993 33.993c0 18.786 15.208 33.993 33.993 33.993c22.059 0 66.312 5.172 128.1 119.206c5.761 10.633 17.03 17.794 29.9 17.794z" />
      </g>
    </g>


    <!-- h -->
    <g id="letter-h" data-nstrokes="2" data-width="975" data-width1="620">
      <g class="strokes" id="strokes-h">
        <path 
           d="M35.3867 35l526 1070c15.9902 32.4951 24 72.8164 24 109c0 57.0312 -33 116 -110 116c-111.047 0 -142.387 -102 -142.387 -225v-1071" 
           id="stroke-h1" />
        <path 
           d="M333 34v307c0 107 145 307 287 307c76 0 134 -55 134 -137v-374c0 -54 17 -103 75.0039 -103c42 0 63 39 78 69c-0.00390625 0 33.377 68 33.377 68"
           id="stroke-h2" />
      </g>
      <g class="outline" id="outlines-h">
        <path id="outline-h1"
      d="M299.495 495l-233.595 -475.011c-5.54684 -11.2835 -17.1699 -18.9819 -30.5139 -18.9819c-18.7855 0 -33.9933 15.2077 -33.9933 33.9933c0 5.14642 1.15982 10.2928 3.47945 15.0115l293.557 597.989zM367 632c0 0 225 458 224.895 457.977
c19.1053 38.0235 27.4854 82.941 27.4854 124.023c0 82.5983 -53.8145 149.993 -143.993 149.993h-0.386719c-48.212 0 -114.93 -17.0608 -150.529 -101.287c-19.416 -45.9374 -25.4644 -100.581 -25.4644 -157.706v-1071c0 -18.7856 15.2079 -33.9933 33.9933 -33.9933
c18.7856 0 33.9933 15.2079 33.9933 33.9933v1071c0 64.1387 9.32148 139.391 48.5483 172.094c13.9422 11.6236 31.9234 18.9125 59.4584 18.9125h0.386719c26.0514 0 42.0321 -8.16006 53.2421 -19.37c14.4037 -14.4037 22.7645 -37.8172 22.7645 -62.6366
c0 -31.2847 -7.37456 -67.2467 -20.5146 -93.9765l-163.879 -334.023v-154z" />
        <path id="outline-h2"
    d="M720.007 511c0 63.5873 -43.0728 103.007 -100.007 103.007c-85.1256 0 -184.511 -95.5797 -230.575 -192.72c-14.9221 -31.468 -22.4316 -60.7223 -22.4316 -80.2867v-307c0 -18.7856 -15.2079 -33.9933 -33.9933 -33.9933
c-18.7856 0 -33.9933 15.2079 -33.9933 33.9933v307c0 75.3255 55.248 174.773 124.67 244.195c53.6331 53.6331 121.794 96.7983 196.323 96.7983c95.0094 0 167.993 -70.5385 167.993 -170.993v-374c0 -15.1166 1.7838 -46.5602 15.7849 -60.5613
c4.70937 -4.70937 10.9193 -8.4454 25.2257 -8.4454c14.9762 0 27.0877 9.22103 47.4771 49.9998c0.110141 0.222323 33.377 68 33.377 68c5.54055 11.288 17.1656 19.0002 30.5229 19.0002c18.7856 0 33.9933 -15.2079 33.9933 -33.9933
c0 -5.13976 -1.15682 -10.2795 -3.47045 -14.9932l-33.377 -68c-14.4833 -28.9666 -44.0001 -88.0002 -108.523 -88.0002c-29.5266 0 -108.997 11.6434 -108.997 136.993v374z" />
      </g>
    </g>

    <!-- h -->
    <g id="letter-minh" data-nstrokes="2" data-width="775" data-width1="420">
      <g class="strokes" id="strokes-minh">
        <path 
           d="M33.5137 436l328.873 669c15.6133 32 24 72.8164 24 109c0 57.0312 -34 116 -111 116c-111.047 0 -141.387 -102 -141.387 -225v-1071" 
           id="stroke-minh1" />
        <path 
           d="M134 34v307c0 107 145 307 287 307c76 0 134 -55 134 -137v-374c0 -54 17 -103 75.004 -103c42 0 63 39 78 69c-0.004 0 33.377 68 33.377 68"
           id="stroke-minh2" />
      </g>
      <g class="outline" id="outlines-minh">
        <path id="outline-minh1"
      d="M100.495 495l-36.9814 -74.0186c-5.54688 -11.2832 -17.1699 -18.9814 -30.5137 -18.9814c-18.7852 0 -33.9932 15.208 -33.9932 33.9932c0 5.14648 1.15918 10.293 3.47949 15.0117l96.9434 196.995zM168 632c0 0 225 458 224.895 457.977
c19.1055 38.0234 27.4854 82.9414 27.4854 124.023c0 82.5986 -53.8145 149.993 -143.993 149.993h-0.386719c-48.2119 0 -114.93 -17.0605 -150.529 -101.287c-19.416 -45.9375 -25.4639 -100.581 -25.4639 -157.706v-1071c0 -18.7852 15.208 -33.9932 33.9932 -33.9932
s33.9932 15.208 33.9932 33.9932v1071c0 64.1387 9.32129 139.391 48.5488 172.094c13.9414 11.624 31.9229 18.9131 59.458 18.9131h0.386719c26.0518 0 42.0322 -8.16016 53.2422 -19.3701c14.4033 -14.4033 22.7646 -37.8174 22.7646 -62.6367
c0 -31.2852 -7.375 -67.2471 -20.5146 -93.9766l-163.879 -334.023v-154z" />
        <path id="outline-minh2"
    d="M521.007 511c0 63.587 -43.073 103.007 -100.007 103.007c-85.126 0 -184.511 -95.58 -230.575 -192.72c-14.922 -31.468 -22.432 -60.722 -22.432 -80.287v-307c0 -18.786 -15.208 -33.993 -33.993 -33.993c-18.786 0 -33.993 15.208 -33.993 33.993v307c0 75.326 55.248 174.773 124.67 244.195c53.633 53.633 121.794 96.798 196.323 96.798c95.009 0 167.993 -70.538 167.993 -170.993v-374c0 -15.117 1.784 -46.56 15.785 -60.561c4.709 -4.709 10.919 -8.445 25.226 -8.445c14.976 0 27.088 9.221 47.477 50c0.11 0.222 33.377 68 33.377 68c5.541 11.288 17.166 19 30.523 19c18.786 0 33.993 -15.208 33.993 -33.993c0 -5.14 -1.157 -10.28 -3.47 -14.993l-33.377 -68c-14.483 -28.967 -44 -88 -108.523 -88c-29.527 0 -108.997 11.643 -108.997 136.993v374z" />
      </g>
    </g>


    <!-- k -->
    <g id="letter-k" data-nstrokes="3" data-width="930" data-width1="620">
      <g class="strokes" id="strokes-k">
        <path 
           d="M35.3867 35l526 1070c15.9902 32.4951 24 72.8164 24 109c0 57.0312 -33 116 -110 116c-111.047 0 -142.387 -102 -142.387 -225v-1071" 
           id="stroke-k1" />
        <path 
           d="M333 34v307c0 107 145 307 287 307c75 0 134 -57 134 -124c0 -85 -73 -105 -183 -133c-83.5654 -21.2715 -214.944 -45.751 -238 -50"
           id="stroke-k2" />
        <path 
           d="M333 342c190 -145 320.98 -245.033 385 -293c21.1289 -15.8311 39 -15 68.0039 -15c42 0 63 39 78 69c-0.00390625 0 33.377 68 33.377 68"
           id="stroke-k3" />
      </g>
      <g class="outline" id="outlines-k">
        <path id="outline-k1"
      d="M299.495 495l-233.595 -475.011c-5.54684 -11.2835 -17.1699 -18.9819 -30.5139 -18.9819c-18.7855 0 -33.9933 15.2077 -33.9933 33.9933c0 5.14642 1.15982 10.2928 3.47945 15.0115l293.557 597.989zM367 632c0 0 225 458 224.895 457.977
c19.1053 38.0235 27.4854 82.941 27.4854 124.023c0 82.5983 -53.8145 149.993 -143.993 149.993h-0.386719c-48.212 0 -114.93 -17.0608 -150.529 -101.287c-19.416 -45.9374 -25.4644 -100.581 -25.4644 -157.706v-1071c0 -18.7856 15.2079 -33.9933 33.9933 -33.9933
c18.7856 0 33.9933 15.2079 33.9933 33.9933v1071c0 64.1387 9.32148 139.391 48.5483 172.094c13.9422 11.6236 31.9234 18.9125 59.4584 18.9125h0.386719c26.0514 0 42.0321 -8.16006 53.2421 -19.37c14.4037 -14.4037 22.7645 -37.8172 22.7645 -62.6366
c0 -31.2847 -7.37456 -67.2467 -20.5146 -93.9765l-163.879 -334.023v-154z" />
        <path id="outline-k2"
    d="M333 0.00666704c18.7856 0 33.9933 15.2079 33.9933 33.9933l-0.000168896 279c-13.9269 -2.53256 -22.1001 -4.11131 -33.9932 -5.99333c-19 -3.00667 -34 18.9933 -33.9932 33.9933c0.00397042 8.71223 4.99316 29 27.7938 33.4273
c19.1709 3.72246 32.3003 6.41508 48.1994 9.57275c15 48 49.481 105.832 96.7604 153.112c46.8756 46.8756 101.29 76.8949 148.24 76.8949c56.1298 0 100.007 -41.8207 100.007 -90.0067c0 -28.0304 -7.3246 -50.3056 -59.8018 -71.2529
c-56.2447 -22.4512 -199.318 -53.6085 -333.404 -78.3198c-15.9894 -2.94676 -27.8006 -17.4273 -27.794 -33.4273c0.00782779 -18.7856 16.9933 -36 33.9933 -33.9933c6.03084 0.711876 262.102 46.5254 352.472 82.5983c32.4012 12.9336 102.521 44.0006 102.521 134.395
c0 85.7616 -74.1078 157.993 -167.993 157.993c-126.866 0 -242.535 -127.193 -292.017 -231.54c-17.7269 -37.383 -28.9768 -74.589 -28.9768 -109.453v-307c0 -18.7856 15.2079 -33.9933 33.9933 -33.9933z" />
        <path id="outline-k3"
    d="M786.004 0.00666704c-2.82013 0 -11.9338 -0.0231739 -12.0543 -0.0231739c-21.0451 0 -48.2182 0.734137 -76.3116 21.7834c-42.0523 31.5078 -63.3087 47.4908 -385.239 293.181c-3.78721 2.89024 -13.392 11.7308 -13.392 27.0521
c0 18.7856 15.2079 33.9933 33.9933 33.9933c7.26887 0 14.5377 -2.31373 20.6013 -6.9412c224.11 -171.036 325.76 -248.612 384.761 -292.819c9.34989 -7.00551 14.6805 -8.24455 42.2122 -8.24455c0.054297 0 4.44004 0.00478436 5.4297 0.00478436
c14.9762 0 27.0877 9.22103 47.4771 49.9998c0.110141 0.222323 33.377 68 33.377 68c5.54055 11.288 17.1656 19.0002 30.5229 19.0002c18.7856 0 33.9933 -15.2079 33.9933 -33.9933c0 -5.13976 -1.15682 -10.2795 -3.47045 -14.9932l-33.377 -68
c-14.4833 -28.9666 -44.0001 -88.0002 -108.523 -88.0002z" />
      </g>
    </g>

    <!-- min k (no entry stroke) -->
    <g id="letter-mink" data-nstrokes="3" data-width="730" data-width1="420">
      <g class="strokes" id="strokes-mink">
        <path 
           d="M33.5137 436l328.873 669c15.6133 32 24 72.8164 24 109c0 57.0312 -34 116 -111 116c-111.047 0 -141.387 -102 -141.387 -225v-1071" 
           id="stroke-mink1" />
        <path 
           d="M134 34v307c0 107 145 307 287 307c75 0 134 -57 134 -124c0 -85 -73 -105 -183 -133c-83.565 -21.272 -214.944 -45.751 -238 -50"
           id="stroke-mink2" />
        <path 
           d="M134 342c190 -145 320.98 -245.033 385 -293c21.129 -15.831 39 -15 68.004 -15c42 0 63 39 78 69c-0.004 0 33.377 68 33.377 68"
           id="stroke-mink3" />
      </g>
      <g class="outline" id="outlines-mink">
        <path id="outline-mink1"
      d="M100.495 495l-36.9814 -74.0186c-5.54688 -11.2832 -17.1699 -18.9814 -30.5137 -18.9814c-18.7852 0 -33.9932 15.208 -33.9932 33.9932c0 5.14648 1.15918 10.293 3.47949 15.0117l96.9434 196.995zM168 632c0 0 225 458 224.895 457.977
c19.1055 38.0234 27.4854 82.9414 27.4854 124.023c0 82.5986 -53.8145 149.993 -143.993 149.993h-0.386719c-48.2119 0 -114.93 -17.0605 -150.529 -101.287c-19.416 -45.9375 -25.4639 -100.581 -25.4639 -157.706v-1071c0 -18.7852 15.208 -33.9932 33.9932 -33.9932
s33.9932 15.208 33.9932 33.9932v1071c0 64.1387 9.32129 139.391 48.5488 172.094c13.9414 11.624 31.9229 18.9131 59.458 18.9131h0.386719c26.0518 0 42.0322 -8.16016 53.2422 -19.3701c14.4033 -14.4033 22.7646 -37.8174 22.7646 -62.6367
c0 -31.2852 -7.375 -67.2471 -20.5146 -93.9766l-163.879 -334.023v-154z" />
        <path id="outline-mink2"
    d="M134 0.007c18.786 0 33.993 15.208 33.993 33.993l0 279c-13.927 -2.533 -22.1 -4.111 -33.993 -5.993c-19 -3.007 -34 18.993 -33.993 33.993c0.004 8.712 4.993 29 27.794 33.427c19.171 3.722 32.3 6.415 48.199 9.573c15 48 49.481 105.832 96.76 153.112c46.876 46.876 101.29 76.895 148.24 76.895c56.13 0 100.007 -41.821 100.007 -90.007c0 -28.03 -7.325 -50.306 -59.802 -71.253c-56.245 -22.451 -199.318 -53.608 -333.404 -78.32c-15.989 -2.947 -27.801 -17.427 -27.794 -33.427c0.008 -18.786 16.993 -36 33.993 -33.993c6.031 0.712 262.102 46.525 352.472 82.598c32.401 12.934 102.521 44.001 102.521 134.395c0 85.762 -74.108 157.993 -167.993 157.993c-126.866 0 -242.535 -127.193 -292.017 -231.54c-17.727 -37.383 -28.977 -74.589 -28.977 -109.453v-307c0 -18.786 15.208 -33.993 33.993 -33.993z" />
        <path id="outline-mink3"
    d="M587.004 0.007c-2.82 0 -11.934 -0.023 -12.054 -0.023c-21.045 0 -48.218 0.734 -76.312 21.783c-42.052 31.508 -63.309 47.491 -385.239 293.181c-3.787 2.89 -13.392 11.731 -13.392 27.052c0 18.786 15.208 33.993 33.993 33.993c7.269 0 14.538 -2.314 20.601 -6.941c224.11 -171.036 325.76 -248.612 384.761 -292.819c9.35 -7.006 14.681 -8.245 42.212 -8.245c0.054 0 4.44 0.005 5.43 0.005c14.976 0 27.088 9.221 47.477 50c0.11 0.222 33.377 68 33.377 68c5.541 11.288 17.166 19 30.523 19c18.786 0 33.993 -15.208 33.993 -33.993c0 -5.14 -1.157 -10.28 -3.47 -14.993l-33.377 -68c-14.483 -28.967 -44 -88 -108.523 -88z" />
      </g>
    </g>






    
  </defs>
</svg>
